G04 #@! TF.GenerationSoftware,KiCad,Pcbnew,8.0.6*
G04 #@! TF.CreationDate,2025-01-02T19:07:44+01:00*
G04 #@! TF.ProjectId,kostka,6b6f7374-6b61-42e6-9b69-6361645f7063,1*
G04 #@! TF.SameCoordinates,Original*
G04 #@! TF.FileFunction,Copper,L1,Top*
G04 #@! TF.FilePolarity,Positive*
%FSLAX46Y46*%
G04 Gerber Fmt 4.6, Leading zero omitted, Abs format (unit mm)*
G04 Created by KiCad (PCBNEW 8.0.6) date 2025-01-02 19:07:44*
%MOMM*%
%LPD*%
G01*
G04 APERTURE LIST*
G04 #@! TA.AperFunction,ComponentPad*
%ADD10R,1.600000X1.600000*%
G04 #@! TD*
G04 #@! TA.AperFunction,ComponentPad*
%ADD11O,1.600000X1.600000*%
G04 #@! TD*
G04 #@! TA.AperFunction,ComponentPad*
%ADD12C,1.600000*%
G04 #@! TD*
G04 #@! TA.AperFunction,ComponentPad*
%ADD13R,1.050000X1.500000*%
G04 #@! TD*
G04 #@! TA.AperFunction,ComponentPad*
%ADD14O,1.050000X1.500000*%
G04 #@! TD*
G04 #@! TA.AperFunction,ComponentPad*
%ADD15R,2.000000X2.000000*%
G04 #@! TD*
G04 #@! TA.AperFunction,ComponentPad*
%ADD16C,2.000000*%
G04 #@! TD*
G04 #@! TA.AperFunction,ComponentPad*
%ADD17R,1.800000X1.800000*%
G04 #@! TD*
G04 #@! TA.AperFunction,ComponentPad*
%ADD18C,1.800000*%
G04 #@! TD*
G04 #@! TA.AperFunction,ComponentPad*
%ADD19R,1.500000X1.050000*%
G04 #@! TD*
G04 #@! TA.AperFunction,ComponentPad*
%ADD20O,1.500000X1.050000*%
G04 #@! TD*
G04 #@! TA.AperFunction,ComponentPad*
%ADD21R,2.400000X2.400000*%
G04 #@! TD*
G04 #@! TA.AperFunction,ComponentPad*
%ADD22C,2.400000*%
G04 #@! TD*
G04 #@! TA.AperFunction,ViaPad*
%ADD23C,0.600000*%
G04 #@! TD*
G04 #@! TA.AperFunction,ViaPad*
%ADD24C,5.500000*%
G04 #@! TD*
G04 #@! TA.AperFunction,Conductor*
%ADD25C,0.400000*%
G04 #@! TD*
G04 APERTURE END LIST*
D10*
X175700000Y-62500000D03*
D11*
X173160000Y-62500000D03*
X170620000Y-62500000D03*
X168080000Y-62500000D03*
X165540000Y-62500000D03*
X163000000Y-62500000D03*
X160460000Y-62500000D03*
X157920000Y-62500000D03*
X157920000Y-70120000D03*
X160460000Y-70120000D03*
X163000000Y-70120000D03*
X165540000Y-70120000D03*
X168080000Y-70120000D03*
X170620000Y-70120000D03*
X173160000Y-70120000D03*
X175700000Y-70120000D03*
D12*
X174000000Y-108120000D03*
D11*
X174000000Y-100500000D03*
D12*
X156500000Y-107620000D03*
D11*
X156500000Y-100000000D03*
D12*
X140500000Y-71120000D03*
D11*
X140500000Y-63500000D03*
D12*
X154500000Y-89810000D03*
D11*
X154500000Y-82190000D03*
D13*
X180730000Y-101000000D03*
D14*
X182000000Y-101000000D03*
X183270000Y-101000000D03*
D12*
X177000000Y-108120000D03*
D11*
X177000000Y-100500000D03*
D15*
X133360000Y-95250000D03*
D16*
X140960000Y-95250000D03*
D17*
X179730000Y-77500000D03*
D18*
X182270000Y-77500000D03*
D10*
X144700000Y-99200000D03*
D11*
X144700000Y-101740000D03*
X144700000Y-104280000D03*
X144700000Y-106820000D03*
X152320000Y-106820000D03*
X152320000Y-104280000D03*
X152320000Y-101740000D03*
X152320000Y-99200000D03*
D19*
X145000000Y-64000000D03*
D20*
X145000000Y-65270000D03*
X145000000Y-66540000D03*
D12*
X149500000Y-63500000D03*
D11*
X149500000Y-71120000D03*
D12*
X159500000Y-107620000D03*
D11*
X159500000Y-100000000D03*
D12*
X144500000Y-70000000D03*
X144500000Y-75000000D03*
X161620000Y-75000000D03*
D11*
X154000000Y-75000000D03*
D17*
X179725000Y-92500000D03*
D18*
X182265000Y-92500000D03*
D17*
X164725000Y-85000000D03*
D18*
X167265000Y-85000000D03*
D21*
X135000000Y-72500000D03*
D22*
X135000000Y-69000000D03*
D10*
X135000000Y-82500000D03*
D12*
X137000000Y-82500000D03*
X139000000Y-82500000D03*
X135000000Y-87500000D03*
X137000000Y-87500000D03*
X139000000Y-87500000D03*
X171000000Y-108120000D03*
D11*
X171000000Y-100500000D03*
D12*
X157500000Y-82190000D03*
D11*
X157500000Y-89810000D03*
D12*
X160500000Y-89810000D03*
D11*
X160500000Y-82190000D03*
D12*
X154345000Y-95000000D03*
X159345000Y-95000000D03*
D17*
X179725000Y-85000000D03*
D18*
X182265000Y-85000000D03*
D17*
X164725000Y-77500000D03*
D18*
X167265000Y-77500000D03*
D17*
X172230000Y-85000000D03*
D18*
X174770000Y-85000000D03*
D12*
X143880000Y-78500000D03*
D11*
X151500000Y-78500000D03*
D12*
X173355000Y-80645000D03*
D11*
X173355000Y-73025000D03*
D16*
X143750000Y-82750000D03*
X150250000Y-82750000D03*
X143750000Y-87250000D03*
X150250000Y-87250000D03*
D12*
X162500000Y-107620000D03*
D11*
X162500000Y-100000000D03*
D17*
X164730000Y-92500000D03*
D18*
X167270000Y-92500000D03*
D19*
X166500000Y-101000000D03*
D20*
X166500000Y-102270000D03*
X166500000Y-103540000D03*
D12*
X154345000Y-92500000D03*
X159345000Y-92500000D03*
D23*
X161000000Y-72000000D03*
X152500000Y-72000000D03*
D24*
X181000000Y-71000000D03*
X174000000Y-93000000D03*
X148000000Y-93000000D03*
X135000000Y-78000000D03*
D23*
X149500000Y-102500000D03*
X147500000Y-102500000D03*
X177000000Y-82700000D03*
X148500000Y-66500000D03*
X147000000Y-72500000D03*
X186500000Y-98500000D03*
X165500000Y-106000000D03*
X167500000Y-97000000D03*
X171000000Y-97000000D03*
X166000000Y-97500000D03*
X184000000Y-97500000D03*
X185000000Y-98000000D03*
X166000000Y-98500000D03*
D25*
X139065000Y-74612500D02*
X136952500Y-72500000D01*
X139065000Y-80435000D02*
X139065000Y-74612500D01*
X137000000Y-82500000D02*
X139065000Y-80435000D01*
X136952500Y-72500000D02*
X135000000Y-72500000D01*
X152500000Y-70500000D02*
X152500000Y-72000000D01*
X151000000Y-69000000D02*
X152500000Y-70500000D01*
X148500000Y-69000000D02*
X151000000Y-69000000D01*
X146000000Y-71500000D02*
X148500000Y-69000000D01*
X142500000Y-71500000D02*
X146000000Y-71500000D01*
X140900000Y-78400000D02*
X140500000Y-78000000D01*
X141000000Y-95290000D02*
X140900000Y-95190000D01*
X140500000Y-73500000D02*
X142500000Y-71500000D01*
X141000000Y-102000000D02*
X141000000Y-95290000D01*
X140900000Y-95190000D02*
X140900000Y-78400000D01*
X143280000Y-104280000D02*
X141000000Y-102000000D01*
X140500000Y-78000000D02*
X140500000Y-73500000D01*
X144700000Y-104280000D02*
X143280000Y-104280000D01*
X141620000Y-70000000D02*
X144500000Y-70000000D01*
X140500000Y-71120000D02*
X141620000Y-70000000D01*
X145000000Y-62500000D02*
X145000000Y-64000000D01*
X146000000Y-61500000D02*
X145000000Y-62500000D01*
X151000000Y-61500000D02*
X146000000Y-61500000D01*
X151750000Y-62250000D02*
X151000000Y-61500000D01*
X151750000Y-64750000D02*
X151750000Y-62250000D01*
X150000000Y-66500000D02*
X151750000Y-64750000D01*
X148500000Y-66500000D02*
X150000000Y-66500000D01*
X173160000Y-67660000D02*
X173160000Y-62500000D01*
X174500000Y-69000000D02*
X173160000Y-67660000D01*
X174500000Y-72000000D02*
X174500000Y-69000000D01*
X178000000Y-78500000D02*
X178000000Y-75500000D01*
X179000000Y-79500000D02*
X178000000Y-78500000D01*
X185500000Y-80500000D02*
X184500000Y-79500000D01*
X178000000Y-75500000D02*
X174500000Y-72000000D01*
X185500000Y-96000000D02*
X185500000Y-80500000D01*
X184000000Y-97500000D02*
X185500000Y-96000000D01*
X184500000Y-79500000D02*
X179000000Y-79500000D01*
X139000000Y-84000000D02*
X139000000Y-82500000D01*
X133227500Y-84772500D02*
X138227500Y-84772500D01*
X138227500Y-84772500D02*
X139000000Y-84000000D01*
X132500000Y-89000000D02*
X132500000Y-85500000D01*
X133400000Y-96500000D02*
X133360000Y-96460000D01*
X133400000Y-97205000D02*
X133400000Y-96500000D01*
X133360000Y-96460000D02*
X133360000Y-89860000D01*
X133360000Y-89860000D02*
X132500000Y-89000000D01*
X143015000Y-106820000D02*
X133400000Y-97205000D01*
X144700000Y-106820000D02*
X143015000Y-106820000D01*
X132500000Y-85500000D02*
X133227500Y-84772500D01*
X169280000Y-61300000D02*
X168080000Y-62500000D01*
X177600000Y-62100000D02*
X176800000Y-61300000D01*
X176800000Y-61300000D02*
X169280000Y-61300000D01*
X177600000Y-73100000D02*
X177600000Y-62100000D01*
X179430000Y-74930000D02*
X177600000Y-73100000D01*
X185930000Y-74930000D02*
X179430000Y-74930000D01*
X187500000Y-97500000D02*
X187500000Y-76500000D01*
X187500000Y-76500000D02*
X185930000Y-74930000D01*
X186500000Y-98500000D02*
X187500000Y-97500000D01*
X185882500Y-75882500D02*
X186500000Y-76500000D01*
X179382500Y-75882500D02*
X185882500Y-75882500D01*
X177000000Y-73500000D02*
X179382500Y-75882500D01*
X186500000Y-96500000D02*
X185000000Y-98000000D01*
X177000000Y-69000000D02*
X177000000Y-73500000D01*
X186500000Y-76500000D02*
X186500000Y-96500000D01*
X175700000Y-67700000D02*
X177000000Y-69000000D01*
X175700000Y-62500000D02*
X175700000Y-67700000D01*
X182040000Y-77730000D02*
X182270000Y-77500000D01*
X167265000Y-75765000D02*
X167265000Y-77500000D01*
X161620000Y-75000000D02*
X166500000Y-75000000D01*
X166500000Y-75000000D02*
X167265000Y-75765000D01*
X164725000Y-79725000D02*
X164725000Y-77500000D01*
X165500000Y-80500000D02*
X164725000Y-79725000D01*
X170500000Y-80500000D02*
X165500000Y-80500000D01*
X172000000Y-79000000D02*
X170500000Y-80500000D01*
X176500000Y-79000000D02*
X172000000Y-79000000D01*
X184000000Y-87000000D02*
X184000000Y-83500000D01*
X184000000Y-83500000D02*
X181500000Y-81000000D01*
X182500000Y-88500000D02*
X184000000Y-87000000D01*
X182500000Y-92265000D02*
X182500000Y-88500000D01*
X182265000Y-92500000D02*
X182500000Y-92265000D01*
X181500000Y-81000000D02*
X178500000Y-81000000D01*
X178500000Y-81000000D02*
X176500000Y-79000000D01*
X164725000Y-85265000D02*
X164960000Y-85500000D01*
X164725000Y-83775000D02*
X164725000Y-85265000D01*
X166500000Y-82000000D02*
X164725000Y-83775000D01*
X180500000Y-82000000D02*
X166500000Y-82000000D01*
X182040000Y-83540000D02*
X180500000Y-82000000D01*
X182040000Y-85500000D02*
X182040000Y-83540000D01*
X167265000Y-87735000D02*
X167265000Y-85000000D01*
X165190000Y-89810000D02*
X167265000Y-87735000D01*
X160500000Y-89810000D02*
X165190000Y-89810000D01*
X164730000Y-92250000D02*
X164730000Y-92500000D01*
X170000000Y-86980000D02*
X164730000Y-92250000D01*
X170000000Y-84500000D02*
X170000000Y-86980000D01*
X171800000Y-82700000D02*
X170000000Y-84500000D01*
X177000000Y-82700000D02*
X171800000Y-82700000D01*
X158750000Y-96520000D02*
X157500000Y-95270000D01*
X163512500Y-96520000D02*
X158750000Y-96520000D01*
X164532500Y-95500000D02*
X163512500Y-96520000D01*
X166500000Y-95500000D02*
X164532500Y-95500000D01*
X167270000Y-94730000D02*
X166500000Y-95500000D01*
X167270000Y-92500000D02*
X167270000Y-94730000D01*
X157500000Y-95270000D02*
X157500000Y-89810000D01*
X179725000Y-95225000D02*
X179725000Y-92500000D01*
X180730000Y-96230000D02*
X179725000Y-95225000D01*
X180730000Y-101000000D02*
X180730000Y-96230000D01*
X139700000Y-81800000D02*
X139700000Y-71920000D01*
X139000000Y-82500000D02*
X139700000Y-81800000D01*
X139700000Y-71920000D02*
X140500000Y-71120000D01*
X154345000Y-102255000D02*
X152320000Y-104280000D01*
X154345000Y-89965000D02*
X154345000Y-102255000D01*
X154500000Y-89810000D02*
X154345000Y-89965000D01*
X152500000Y-95667500D02*
X153520000Y-96687500D01*
X152500000Y-89000000D02*
X152500000Y-95667500D01*
X153520000Y-100540000D02*
X152320000Y-101740000D01*
X154500000Y-87000000D02*
X152500000Y-89000000D01*
X154500000Y-82190000D02*
X154500000Y-87000000D01*
X153520000Y-96687500D02*
X153520000Y-100540000D01*
X164851472Y-96800000D02*
X167300000Y-96800000D01*
X156300000Y-88200000D02*
X156300000Y-90800000D01*
X167300000Y-96800000D02*
X167500000Y-97000000D01*
X156300000Y-90800000D02*
X156500000Y-91000000D01*
X156500000Y-91000000D02*
X156500000Y-95540000D01*
X164178972Y-97472500D02*
X164851472Y-96800000D01*
X160500000Y-84000000D02*
X156300000Y-88200000D01*
X160500000Y-82190000D02*
X160500000Y-84000000D01*
X158432500Y-97472500D02*
X164178972Y-97472500D01*
X156500000Y-95540000D02*
X158432500Y-97472500D01*
X172230000Y-89072500D02*
X172230000Y-85500000D01*
X169545000Y-91757500D02*
X172230000Y-89072500D01*
X169545000Y-97472500D02*
X169545000Y-91757500D01*
X167005000Y-98742500D02*
X168275000Y-98742500D01*
X168275000Y-98742500D02*
X169545000Y-97472500D01*
X166500000Y-99247500D02*
X167005000Y-98742500D01*
X166500000Y-101000000D02*
X166500000Y-99247500D01*
X178750000Y-103000000D02*
X177000000Y-104750000D01*
X181000000Y-103000000D02*
X178750000Y-103000000D01*
X182000000Y-102000000D02*
X181000000Y-103000000D01*
X182000000Y-101000000D02*
X182000000Y-102000000D01*
X177000000Y-104750000D02*
X177000000Y-108120000D01*
X154000000Y-68000000D02*
X154000000Y-75000000D01*
X146680000Y-106820000D02*
X144700000Y-106820000D01*
X144580000Y-69920000D02*
X146080000Y-69920000D01*
X144500000Y-70000000D02*
X144500000Y-67040000D01*
X148500000Y-105000000D02*
X146680000Y-106820000D01*
X144500000Y-67040000D02*
X145000000Y-66540000D01*
X148000000Y-68000000D02*
X154000000Y-68000000D01*
X146080000Y-69920000D02*
X148000000Y-68000000D01*
X149300000Y-99200000D02*
X148500000Y-100000000D01*
X144500000Y-70000000D02*
X144580000Y-69920000D01*
X152320000Y-99200000D02*
X149300000Y-99200000D01*
X148500000Y-100000000D02*
X148500000Y-105000000D01*
X168740000Y-72000000D02*
X161000000Y-72000000D01*
X170620000Y-70120000D02*
X168740000Y-72000000D01*
X149500000Y-73000000D02*
X149500000Y-71120000D01*
X143750000Y-87250000D02*
X141500000Y-85000000D01*
X147500000Y-75000000D02*
X149500000Y-73000000D01*
X145000000Y-80500000D02*
X146500000Y-79000000D01*
X146500000Y-79000000D02*
X146500000Y-75000000D01*
X143750000Y-87250000D02*
X150250000Y-87250000D01*
X141500000Y-85000000D02*
X141500000Y-81500000D01*
X144500000Y-75000000D02*
X146500000Y-75000000D01*
X146500000Y-75000000D02*
X147500000Y-75000000D01*
X142500000Y-80500000D02*
X145000000Y-80500000D01*
X141500000Y-81500000D02*
X142500000Y-80500000D01*
X152320000Y-104280000D02*
X151280000Y-104280000D01*
X151280000Y-104280000D02*
X149500000Y-102500000D01*
X146740000Y-101740000D02*
X147500000Y-102500000D01*
X144700000Y-101740000D02*
X146740000Y-101740000D01*
X147000000Y-72500000D02*
X146500000Y-73000000D01*
X142500000Y-78500000D02*
X143880000Y-78500000D01*
X146500000Y-73000000D02*
X142000000Y-73000000D01*
X142000000Y-73000000D02*
X141500000Y-73500000D01*
X141500000Y-77500000D02*
X142500000Y-78500000D01*
X141500000Y-73500000D02*
X141500000Y-77500000D01*
X140500000Y-63500000D02*
X142270000Y-65270000D01*
X147730000Y-65270000D02*
X149500000Y-63500000D01*
X142270000Y-65270000D02*
X145000000Y-65270000D01*
X145000000Y-65270000D02*
X147730000Y-65270000D01*
X174000000Y-108120000D02*
X177000000Y-108120000D01*
X171000000Y-108120000D02*
X174000000Y-108120000D01*
X166500000Y-102270000D02*
X163730000Y-102270000D01*
X162500000Y-107620000D02*
X159500000Y-107620000D01*
X163730000Y-102270000D02*
X162500000Y-103500000D01*
X156500000Y-107620000D02*
X159500000Y-107620000D01*
X162500000Y-103500000D02*
X162500000Y-107620000D01*
X154500000Y-82190000D02*
X154500000Y-80000000D01*
X154500000Y-80000000D02*
X153000000Y-78500000D01*
X153000000Y-78500000D02*
X151500000Y-78500000D01*
X160460000Y-62500000D02*
X160460000Y-63040000D01*
X170500000Y-106000000D02*
X174000000Y-102500000D01*
X160460000Y-63040000D02*
X155200000Y-68300000D01*
X155200000Y-68300000D02*
X155200000Y-80738528D01*
X174000000Y-102500000D02*
X174000000Y-100500000D01*
X155700000Y-96200000D02*
X159500000Y-100000000D01*
X165500000Y-106000000D02*
X170500000Y-106000000D01*
X155200000Y-80738528D02*
X156000000Y-81538528D01*
X156000000Y-87000000D02*
X155700000Y-87300000D01*
X155700000Y-87300000D02*
X155700000Y-96200000D01*
X156000000Y-81538528D02*
X156000000Y-87000000D01*
X159500000Y-71080000D02*
X160460000Y-70120000D01*
X160500000Y-78500000D02*
X159500000Y-77500000D01*
X173500000Y-97000000D02*
X171000000Y-97000000D01*
X177000000Y-100500000D02*
X173500000Y-97000000D01*
X160500000Y-82190000D02*
X160500000Y-78500000D01*
X159500000Y-77500000D02*
X159500000Y-71080000D01*
X165000000Y-97500000D02*
X166000000Y-97500000D01*
X162500000Y-100000000D02*
X165000000Y-97500000D01*
X165000000Y-99500000D02*
X166000000Y-98500000D01*
X156500000Y-100000000D02*
X156500000Y-101500000D01*
X157500000Y-102500000D02*
X162500000Y-102500000D01*
X162500000Y-102500000D02*
X165000000Y-100000000D01*
X165000000Y-100000000D02*
X165000000Y-99500000D01*
X156500000Y-101500000D02*
X157500000Y-102500000D01*
X175700000Y-62500000D02*
X175700000Y-62700000D01*
X165540000Y-68540000D02*
X165000000Y-68000000D01*
X156000000Y-69000000D02*
X156000000Y-80690000D01*
X165000000Y-68000000D02*
X157000000Y-68000000D01*
X157000000Y-68000000D02*
X156000000Y-69000000D01*
X165540000Y-70120000D02*
X165540000Y-68540000D01*
X156000000Y-80690000D02*
X157500000Y-82190000D01*
X170040000Y-67000000D02*
X167500000Y-67000000D01*
X167500000Y-67000000D02*
X165540000Y-65040000D01*
X165540000Y-65040000D02*
X165540000Y-62500000D01*
X173160000Y-70120000D02*
X170040000Y-67000000D01*
M02*
