G04 #@! TF.GenerationSoftware,KiCad,Pcbnew,8.0.6*
G04 #@! TF.CreationDate,2025-01-02T19:07:44+01:00*
G04 #@! TF.ProjectId,kostka,6b6f7374-6b61-42e6-9b69-6361645f7063,1*
G04 #@! TF.SameCoordinates,Original*
G04 #@! TF.FileFunction,Legend,Top*
G04 #@! TF.FilePolarity,Positive*
%FSLAX46Y46*%
G04 Gerber Fmt 4.6, Leading zero omitted, Abs format (unit mm)*
G04 Created by KiCad (PCBNEW 8.0.6) date 2025-01-02 19:07:44*
%MOMM*%
%LPD*%
G01*
G04 APERTURE LIST*
%ADD10C,0.150000*%
%ADD11C,0.120000*%
%ADD12C,0.100000*%
%ADD13C,2.800000*%
%ADD14R,1.600000X1.600000*%
%ADD15O,1.600000X1.600000*%
%ADD16C,1.600000*%
%ADD17R,1.050000X1.500000*%
%ADD18O,1.050000X1.500000*%
%ADD19R,2.000000X2.000000*%
%ADD20C,2.000000*%
%ADD21R,1.800000X1.800000*%
%ADD22C,1.800000*%
%ADD23R,1.500000X1.050000*%
%ADD24O,1.500000X1.050000*%
%ADD25R,2.400000X2.400000*%
%ADD26C,2.400000*%
G04 APERTURE END LIST*
D10*
X138306422Y-107772319D02*
X138877850Y-107772319D01*
X138592136Y-108772319D02*
X138592136Y-107772319D01*
X139401660Y-107772319D02*
X139592136Y-107772319D01*
X139592136Y-107772319D02*
X139687374Y-107819938D01*
X139687374Y-107819938D02*
X139782612Y-107915176D01*
X139782612Y-107915176D02*
X139830231Y-108105652D01*
X139830231Y-108105652D02*
X139830231Y-108438985D01*
X139830231Y-108438985D02*
X139782612Y-108629461D01*
X139782612Y-108629461D02*
X139687374Y-108724700D01*
X139687374Y-108724700D02*
X139592136Y-108772319D01*
X139592136Y-108772319D02*
X139401660Y-108772319D01*
X139401660Y-108772319D02*
X139306422Y-108724700D01*
X139306422Y-108724700D02*
X139211184Y-108629461D01*
X139211184Y-108629461D02*
X139163565Y-108438985D01*
X139163565Y-108438985D02*
X139163565Y-108105652D01*
X139163565Y-108105652D02*
X139211184Y-107915176D01*
X139211184Y-107915176D02*
X139306422Y-107819938D01*
X139306422Y-107819938D02*
X139401660Y-107772319D01*
X140258803Y-108772319D02*
X140258803Y-107772319D01*
X140258803Y-107772319D02*
X140639755Y-107772319D01*
X140639755Y-107772319D02*
X140734993Y-107819938D01*
X140734993Y-107819938D02*
X140782612Y-107867557D01*
X140782612Y-107867557D02*
X140830231Y-107962795D01*
X140830231Y-107962795D02*
X140830231Y-108105652D01*
X140830231Y-108105652D02*
X140782612Y-108200890D01*
X140782612Y-108200890D02*
X140734993Y-108248509D01*
X140734993Y-108248509D02*
X140639755Y-108296128D01*
X140639755Y-108296128D02*
X140258803Y-108296128D01*
X177738095Y-65954819D02*
X177738095Y-66764342D01*
X177738095Y-66764342D02*
X177785714Y-66859580D01*
X177785714Y-66859580D02*
X177833333Y-66907200D01*
X177833333Y-66907200D02*
X177928571Y-66954819D01*
X177928571Y-66954819D02*
X178119047Y-66954819D01*
X178119047Y-66954819D02*
X178214285Y-66907200D01*
X178214285Y-66907200D02*
X178261904Y-66859580D01*
X178261904Y-66859580D02*
X178309523Y-66764342D01*
X178309523Y-66764342D02*
X178309523Y-65954819D01*
X178738095Y-66050057D02*
X178785714Y-66002438D01*
X178785714Y-66002438D02*
X178880952Y-65954819D01*
X178880952Y-65954819D02*
X179119047Y-65954819D01*
X179119047Y-65954819D02*
X179214285Y-66002438D01*
X179214285Y-66002438D02*
X179261904Y-66050057D01*
X179261904Y-66050057D02*
X179309523Y-66145295D01*
X179309523Y-66145295D02*
X179309523Y-66240533D01*
X179309523Y-66240533D02*
X179261904Y-66383390D01*
X179261904Y-66383390D02*
X178690476Y-66954819D01*
X178690476Y-66954819D02*
X179309523Y-66954819D01*
X173833333Y-98954819D02*
X173500000Y-98478628D01*
X173261905Y-98954819D02*
X173261905Y-97954819D01*
X173261905Y-97954819D02*
X173642857Y-97954819D01*
X173642857Y-97954819D02*
X173738095Y-98002438D01*
X173738095Y-98002438D02*
X173785714Y-98050057D01*
X173785714Y-98050057D02*
X173833333Y-98145295D01*
X173833333Y-98145295D02*
X173833333Y-98288152D01*
X173833333Y-98288152D02*
X173785714Y-98383390D01*
X173785714Y-98383390D02*
X173738095Y-98431009D01*
X173738095Y-98431009D02*
X173642857Y-98478628D01*
X173642857Y-98478628D02*
X173261905Y-98478628D01*
X174690476Y-97954819D02*
X174500000Y-97954819D01*
X174500000Y-97954819D02*
X174404762Y-98002438D01*
X174404762Y-98002438D02*
X174357143Y-98050057D01*
X174357143Y-98050057D02*
X174261905Y-98192914D01*
X174261905Y-98192914D02*
X174214286Y-98383390D01*
X174214286Y-98383390D02*
X174214286Y-98764342D01*
X174214286Y-98764342D02*
X174261905Y-98859580D01*
X174261905Y-98859580D02*
X174309524Y-98907200D01*
X174309524Y-98907200D02*
X174404762Y-98954819D01*
X174404762Y-98954819D02*
X174595238Y-98954819D01*
X174595238Y-98954819D02*
X174690476Y-98907200D01*
X174690476Y-98907200D02*
X174738095Y-98859580D01*
X174738095Y-98859580D02*
X174785714Y-98764342D01*
X174785714Y-98764342D02*
X174785714Y-98526247D01*
X174785714Y-98526247D02*
X174738095Y-98431009D01*
X174738095Y-98431009D02*
X174690476Y-98383390D01*
X174690476Y-98383390D02*
X174595238Y-98335771D01*
X174595238Y-98335771D02*
X174404762Y-98335771D01*
X174404762Y-98335771D02*
X174309524Y-98383390D01*
X174309524Y-98383390D02*
X174261905Y-98431009D01*
X174261905Y-98431009D02*
X174214286Y-98526247D01*
X155357142Y-98454819D02*
X155023809Y-97978628D01*
X154785714Y-98454819D02*
X154785714Y-97454819D01*
X154785714Y-97454819D02*
X155166666Y-97454819D01*
X155166666Y-97454819D02*
X155261904Y-97502438D01*
X155261904Y-97502438D02*
X155309523Y-97550057D01*
X155309523Y-97550057D02*
X155357142Y-97645295D01*
X155357142Y-97645295D02*
X155357142Y-97788152D01*
X155357142Y-97788152D02*
X155309523Y-97883390D01*
X155309523Y-97883390D02*
X155261904Y-97931009D01*
X155261904Y-97931009D02*
X155166666Y-97978628D01*
X155166666Y-97978628D02*
X154785714Y-97978628D01*
X156309523Y-98454819D02*
X155738095Y-98454819D01*
X156023809Y-98454819D02*
X156023809Y-97454819D01*
X156023809Y-97454819D02*
X155928571Y-97597676D01*
X155928571Y-97597676D02*
X155833333Y-97692914D01*
X155833333Y-97692914D02*
X155738095Y-97740533D01*
X156928571Y-97454819D02*
X157023809Y-97454819D01*
X157023809Y-97454819D02*
X157119047Y-97502438D01*
X157119047Y-97502438D02*
X157166666Y-97550057D01*
X157166666Y-97550057D02*
X157214285Y-97645295D01*
X157214285Y-97645295D02*
X157261904Y-97835771D01*
X157261904Y-97835771D02*
X157261904Y-98073866D01*
X157261904Y-98073866D02*
X157214285Y-98264342D01*
X157214285Y-98264342D02*
X157166666Y-98359580D01*
X157166666Y-98359580D02*
X157119047Y-98407200D01*
X157119047Y-98407200D02*
X157023809Y-98454819D01*
X157023809Y-98454819D02*
X156928571Y-98454819D01*
X156928571Y-98454819D02*
X156833333Y-98407200D01*
X156833333Y-98407200D02*
X156785714Y-98359580D01*
X156785714Y-98359580D02*
X156738095Y-98264342D01*
X156738095Y-98264342D02*
X156690476Y-98073866D01*
X156690476Y-98073866D02*
X156690476Y-97835771D01*
X156690476Y-97835771D02*
X156738095Y-97645295D01*
X156738095Y-97645295D02*
X156785714Y-97550057D01*
X156785714Y-97550057D02*
X156833333Y-97502438D01*
X156833333Y-97502438D02*
X156928571Y-97454819D01*
X140168333Y-62049819D02*
X139835000Y-61573628D01*
X139596905Y-62049819D02*
X139596905Y-61049819D01*
X139596905Y-61049819D02*
X139977857Y-61049819D01*
X139977857Y-61049819D02*
X140073095Y-61097438D01*
X140073095Y-61097438D02*
X140120714Y-61145057D01*
X140120714Y-61145057D02*
X140168333Y-61240295D01*
X140168333Y-61240295D02*
X140168333Y-61383152D01*
X140168333Y-61383152D02*
X140120714Y-61478390D01*
X140120714Y-61478390D02*
X140073095Y-61526009D01*
X140073095Y-61526009D02*
X139977857Y-61573628D01*
X139977857Y-61573628D02*
X139596905Y-61573628D01*
X140549286Y-61145057D02*
X140596905Y-61097438D01*
X140596905Y-61097438D02*
X140692143Y-61049819D01*
X140692143Y-61049819D02*
X140930238Y-61049819D01*
X140930238Y-61049819D02*
X141025476Y-61097438D01*
X141025476Y-61097438D02*
X141073095Y-61145057D01*
X141073095Y-61145057D02*
X141120714Y-61240295D01*
X141120714Y-61240295D02*
X141120714Y-61335533D01*
X141120714Y-61335533D02*
X141073095Y-61478390D01*
X141073095Y-61478390D02*
X140501667Y-62049819D01*
X140501667Y-62049819D02*
X141120714Y-62049819D01*
X153833333Y-80954819D02*
X153500000Y-80478628D01*
X153261905Y-80954819D02*
X153261905Y-79954819D01*
X153261905Y-79954819D02*
X153642857Y-79954819D01*
X153642857Y-79954819D02*
X153738095Y-80002438D01*
X153738095Y-80002438D02*
X153785714Y-80050057D01*
X153785714Y-80050057D02*
X153833333Y-80145295D01*
X153833333Y-80145295D02*
X153833333Y-80288152D01*
X153833333Y-80288152D02*
X153785714Y-80383390D01*
X153785714Y-80383390D02*
X153738095Y-80431009D01*
X153738095Y-80431009D02*
X153642857Y-80478628D01*
X153642857Y-80478628D02*
X153261905Y-80478628D01*
X154690476Y-80288152D02*
X154690476Y-80954819D01*
X154452381Y-79907200D02*
X154214286Y-80621485D01*
X154214286Y-80621485D02*
X154833333Y-80621485D01*
X185642261Y-101515057D02*
X185547023Y-101467438D01*
X185547023Y-101467438D02*
X185451785Y-101372200D01*
X185451785Y-101372200D02*
X185308928Y-101229342D01*
X185308928Y-101229342D02*
X185213690Y-101181723D01*
X185213690Y-101181723D02*
X185118452Y-101181723D01*
X185166071Y-101419819D02*
X185070833Y-101372200D01*
X185070833Y-101372200D02*
X184975595Y-101276961D01*
X184975595Y-101276961D02*
X184927976Y-101086485D01*
X184927976Y-101086485D02*
X184927976Y-100753152D01*
X184927976Y-100753152D02*
X184975595Y-100562676D01*
X184975595Y-100562676D02*
X185070833Y-100467438D01*
X185070833Y-100467438D02*
X185166071Y-100419819D01*
X185166071Y-100419819D02*
X185356547Y-100419819D01*
X185356547Y-100419819D02*
X185451785Y-100467438D01*
X185451785Y-100467438D02*
X185547023Y-100562676D01*
X185547023Y-100562676D02*
X185594642Y-100753152D01*
X185594642Y-100753152D02*
X185594642Y-101086485D01*
X185594642Y-101086485D02*
X185547023Y-101276961D01*
X185547023Y-101276961D02*
X185451785Y-101372200D01*
X185451785Y-101372200D02*
X185356547Y-101419819D01*
X185356547Y-101419819D02*
X185166071Y-101419819D01*
X185975595Y-100515057D02*
X186023214Y-100467438D01*
X186023214Y-100467438D02*
X186118452Y-100419819D01*
X186118452Y-100419819D02*
X186356547Y-100419819D01*
X186356547Y-100419819D02*
X186451785Y-100467438D01*
X186451785Y-100467438D02*
X186499404Y-100515057D01*
X186499404Y-100515057D02*
X186547023Y-100610295D01*
X186547023Y-100610295D02*
X186547023Y-100705533D01*
X186547023Y-100705533D02*
X186499404Y-100848390D01*
X186499404Y-100848390D02*
X185927976Y-101419819D01*
X185927976Y-101419819D02*
X186547023Y-101419819D01*
X176833333Y-98954819D02*
X176500000Y-98478628D01*
X176261905Y-98954819D02*
X176261905Y-97954819D01*
X176261905Y-97954819D02*
X176642857Y-97954819D01*
X176642857Y-97954819D02*
X176738095Y-98002438D01*
X176738095Y-98002438D02*
X176785714Y-98050057D01*
X176785714Y-98050057D02*
X176833333Y-98145295D01*
X176833333Y-98145295D02*
X176833333Y-98288152D01*
X176833333Y-98288152D02*
X176785714Y-98383390D01*
X176785714Y-98383390D02*
X176738095Y-98431009D01*
X176738095Y-98431009D02*
X176642857Y-98478628D01*
X176642857Y-98478628D02*
X176261905Y-98478628D01*
X177166667Y-97954819D02*
X177833333Y-97954819D01*
X177833333Y-97954819D02*
X177404762Y-98954819D01*
X140369047Y-101931009D02*
X140511904Y-101978628D01*
X140511904Y-101978628D02*
X140559523Y-102026247D01*
X140559523Y-102026247D02*
X140607142Y-102121485D01*
X140607142Y-102121485D02*
X140607142Y-102264342D01*
X140607142Y-102264342D02*
X140559523Y-102359580D01*
X140559523Y-102359580D02*
X140511904Y-102407200D01*
X140511904Y-102407200D02*
X140416666Y-102454819D01*
X140416666Y-102454819D02*
X140035714Y-102454819D01*
X140035714Y-102454819D02*
X140035714Y-101454819D01*
X140035714Y-101454819D02*
X140369047Y-101454819D01*
X140369047Y-101454819D02*
X140464285Y-101502438D01*
X140464285Y-101502438D02*
X140511904Y-101550057D01*
X140511904Y-101550057D02*
X140559523Y-101645295D01*
X140559523Y-101645295D02*
X140559523Y-101740533D01*
X140559523Y-101740533D02*
X140511904Y-101835771D01*
X140511904Y-101835771D02*
X140464285Y-101883390D01*
X140464285Y-101883390D02*
X140369047Y-101931009D01*
X140369047Y-101931009D02*
X140035714Y-101931009D01*
X140940476Y-101454819D02*
X141607142Y-101454819D01*
X141607142Y-101454819D02*
X140940476Y-102454819D01*
X140940476Y-102454819D02*
X141607142Y-102454819D01*
X142511904Y-102454819D02*
X141940476Y-102454819D01*
X142226190Y-102454819D02*
X142226190Y-101454819D01*
X142226190Y-101454819D02*
X142130952Y-101597676D01*
X142130952Y-101597676D02*
X142035714Y-101692914D01*
X142035714Y-101692914D02*
X141940476Y-101740533D01*
X132969048Y-92783866D02*
X133730953Y-92783866D01*
X133350000Y-93164819D02*
X133350000Y-92402914D01*
X183729405Y-80782319D02*
X183729405Y-79782319D01*
X183729405Y-79782319D02*
X183967500Y-79782319D01*
X183967500Y-79782319D02*
X184110357Y-79829938D01*
X184110357Y-79829938D02*
X184205595Y-79925176D01*
X184205595Y-79925176D02*
X184253214Y-80020414D01*
X184253214Y-80020414D02*
X184300833Y-80210890D01*
X184300833Y-80210890D02*
X184300833Y-80353747D01*
X184300833Y-80353747D02*
X184253214Y-80544223D01*
X184253214Y-80544223D02*
X184205595Y-80639461D01*
X184205595Y-80639461D02*
X184110357Y-80734700D01*
X184110357Y-80734700D02*
X183967500Y-80782319D01*
X183967500Y-80782319D02*
X183729405Y-80782319D01*
X184634167Y-79782319D02*
X185253214Y-79782319D01*
X185253214Y-79782319D02*
X184919881Y-80163271D01*
X184919881Y-80163271D02*
X185062738Y-80163271D01*
X185062738Y-80163271D02*
X185157976Y-80210890D01*
X185157976Y-80210890D02*
X185205595Y-80258509D01*
X185205595Y-80258509D02*
X185253214Y-80353747D01*
X185253214Y-80353747D02*
X185253214Y-80591842D01*
X185253214Y-80591842D02*
X185205595Y-80687080D01*
X185205595Y-80687080D02*
X185157976Y-80734700D01*
X185157976Y-80734700D02*
X185062738Y-80782319D01*
X185062738Y-80782319D02*
X184777024Y-80782319D01*
X184777024Y-80782319D02*
X184681786Y-80734700D01*
X184681786Y-80734700D02*
X184634167Y-80687080D01*
X147748095Y-96324819D02*
X147748095Y-97134342D01*
X147748095Y-97134342D02*
X147795714Y-97229580D01*
X147795714Y-97229580D02*
X147843333Y-97277200D01*
X147843333Y-97277200D02*
X147938571Y-97324819D01*
X147938571Y-97324819D02*
X148129047Y-97324819D01*
X148129047Y-97324819D02*
X148224285Y-97277200D01*
X148224285Y-97277200D02*
X148271904Y-97229580D01*
X148271904Y-97229580D02*
X148319523Y-97134342D01*
X148319523Y-97134342D02*
X148319523Y-96324819D01*
X149319523Y-97324819D02*
X148748095Y-97324819D01*
X149033809Y-97324819D02*
X149033809Y-96324819D01*
X149033809Y-96324819D02*
X148938571Y-96467676D01*
X148938571Y-96467676D02*
X148843333Y-96562914D01*
X148843333Y-96562914D02*
X148748095Y-96610533D01*
X145002261Y-62145057D02*
X144907023Y-62097438D01*
X144907023Y-62097438D02*
X144811785Y-62002200D01*
X144811785Y-62002200D02*
X144668928Y-61859342D01*
X144668928Y-61859342D02*
X144573690Y-61811723D01*
X144573690Y-61811723D02*
X144478452Y-61811723D01*
X144526071Y-62049819D02*
X144430833Y-62002200D01*
X144430833Y-62002200D02*
X144335595Y-61906961D01*
X144335595Y-61906961D02*
X144287976Y-61716485D01*
X144287976Y-61716485D02*
X144287976Y-61383152D01*
X144287976Y-61383152D02*
X144335595Y-61192676D01*
X144335595Y-61192676D02*
X144430833Y-61097438D01*
X144430833Y-61097438D02*
X144526071Y-61049819D01*
X144526071Y-61049819D02*
X144716547Y-61049819D01*
X144716547Y-61049819D02*
X144811785Y-61097438D01*
X144811785Y-61097438D02*
X144907023Y-61192676D01*
X144907023Y-61192676D02*
X144954642Y-61383152D01*
X144954642Y-61383152D02*
X144954642Y-61716485D01*
X144954642Y-61716485D02*
X144907023Y-61906961D01*
X144907023Y-61906961D02*
X144811785Y-62002200D01*
X144811785Y-62002200D02*
X144716547Y-62049819D01*
X144716547Y-62049819D02*
X144526071Y-62049819D01*
X145907023Y-62049819D02*
X145335595Y-62049819D01*
X145621309Y-62049819D02*
X145621309Y-61049819D01*
X145621309Y-61049819D02*
X145526071Y-61192676D01*
X145526071Y-61192676D02*
X145430833Y-61287914D01*
X145430833Y-61287914D02*
X145335595Y-61335533D01*
X151915833Y-67447319D02*
X151582500Y-66971128D01*
X151344405Y-67447319D02*
X151344405Y-66447319D01*
X151344405Y-66447319D02*
X151725357Y-66447319D01*
X151725357Y-66447319D02*
X151820595Y-66494938D01*
X151820595Y-66494938D02*
X151868214Y-66542557D01*
X151868214Y-66542557D02*
X151915833Y-66637795D01*
X151915833Y-66637795D02*
X151915833Y-66780652D01*
X151915833Y-66780652D02*
X151868214Y-66875890D01*
X151868214Y-66875890D02*
X151820595Y-66923509D01*
X151820595Y-66923509D02*
X151725357Y-66971128D01*
X151725357Y-66971128D02*
X151344405Y-66971128D01*
X152868214Y-67447319D02*
X152296786Y-67447319D01*
X152582500Y-67447319D02*
X152582500Y-66447319D01*
X152582500Y-66447319D02*
X152487262Y-66590176D01*
X152487262Y-66590176D02*
X152392024Y-66685414D01*
X152392024Y-66685414D02*
X152296786Y-66733033D01*
X159333333Y-98454819D02*
X159000000Y-97978628D01*
X158761905Y-98454819D02*
X158761905Y-97454819D01*
X158761905Y-97454819D02*
X159142857Y-97454819D01*
X159142857Y-97454819D02*
X159238095Y-97502438D01*
X159238095Y-97502438D02*
X159285714Y-97550057D01*
X159285714Y-97550057D02*
X159333333Y-97645295D01*
X159333333Y-97645295D02*
X159333333Y-97788152D01*
X159333333Y-97788152D02*
X159285714Y-97883390D01*
X159285714Y-97883390D02*
X159238095Y-97931009D01*
X159238095Y-97931009D02*
X159142857Y-97978628D01*
X159142857Y-97978628D02*
X158761905Y-97978628D01*
X159809524Y-98454819D02*
X160000000Y-98454819D01*
X160000000Y-98454819D02*
X160095238Y-98407200D01*
X160095238Y-98407200D02*
X160142857Y-98359580D01*
X160142857Y-98359580D02*
X160238095Y-98216723D01*
X160238095Y-98216723D02*
X160285714Y-98026247D01*
X160285714Y-98026247D02*
X160285714Y-97645295D01*
X160285714Y-97645295D02*
X160238095Y-97550057D01*
X160238095Y-97550057D02*
X160190476Y-97502438D01*
X160190476Y-97502438D02*
X160095238Y-97454819D01*
X160095238Y-97454819D02*
X159904762Y-97454819D01*
X159904762Y-97454819D02*
X159809524Y-97502438D01*
X159809524Y-97502438D02*
X159761905Y-97550057D01*
X159761905Y-97550057D02*
X159714286Y-97645295D01*
X159714286Y-97645295D02*
X159714286Y-97883390D01*
X159714286Y-97883390D02*
X159761905Y-97978628D01*
X159761905Y-97978628D02*
X159809524Y-98026247D01*
X159809524Y-98026247D02*
X159904762Y-98073866D01*
X159904762Y-98073866D02*
X160095238Y-98073866D01*
X160095238Y-98073866D02*
X160190476Y-98026247D01*
X160190476Y-98026247D02*
X160238095Y-97978628D01*
X160238095Y-97978628D02*
X160285714Y-97883390D01*
X146533333Y-74359580D02*
X146485714Y-74407200D01*
X146485714Y-74407200D02*
X146342857Y-74454819D01*
X146342857Y-74454819D02*
X146247619Y-74454819D01*
X146247619Y-74454819D02*
X146104762Y-74407200D01*
X146104762Y-74407200D02*
X146009524Y-74311961D01*
X146009524Y-74311961D02*
X145961905Y-74216723D01*
X145961905Y-74216723D02*
X145914286Y-74026247D01*
X145914286Y-74026247D02*
X145914286Y-73883390D01*
X145914286Y-73883390D02*
X145961905Y-73692914D01*
X145961905Y-73692914D02*
X146009524Y-73597676D01*
X146009524Y-73597676D02*
X146104762Y-73502438D01*
X146104762Y-73502438D02*
X146247619Y-73454819D01*
X146247619Y-73454819D02*
X146342857Y-73454819D01*
X146342857Y-73454819D02*
X146485714Y-73502438D01*
X146485714Y-73502438D02*
X146533333Y-73550057D01*
X147485714Y-74454819D02*
X146914286Y-74454819D01*
X147200000Y-74454819D02*
X147200000Y-73454819D01*
X147200000Y-73454819D02*
X147104762Y-73597676D01*
X147104762Y-73597676D02*
X147009524Y-73692914D01*
X147009524Y-73692914D02*
X146914286Y-73740533D01*
X157167142Y-77824819D02*
X156833809Y-77348628D01*
X156595714Y-77824819D02*
X156595714Y-76824819D01*
X156595714Y-76824819D02*
X156976666Y-76824819D01*
X156976666Y-76824819D02*
X157071904Y-76872438D01*
X157071904Y-76872438D02*
X157119523Y-76920057D01*
X157119523Y-76920057D02*
X157167142Y-77015295D01*
X157167142Y-77015295D02*
X157167142Y-77158152D01*
X157167142Y-77158152D02*
X157119523Y-77253390D01*
X157119523Y-77253390D02*
X157071904Y-77301009D01*
X157071904Y-77301009D02*
X156976666Y-77348628D01*
X156976666Y-77348628D02*
X156595714Y-77348628D01*
X158119523Y-77824819D02*
X157548095Y-77824819D01*
X157833809Y-77824819D02*
X157833809Y-76824819D01*
X157833809Y-76824819D02*
X157738571Y-76967676D01*
X157738571Y-76967676D02*
X157643333Y-77062914D01*
X157643333Y-77062914D02*
X157548095Y-77110533D01*
X159071904Y-77824819D02*
X158500476Y-77824819D01*
X158786190Y-77824819D02*
X158786190Y-76824819D01*
X158786190Y-76824819D02*
X158690952Y-76967676D01*
X158690952Y-76967676D02*
X158595714Y-77062914D01*
X158595714Y-77062914D02*
X158500476Y-77110533D01*
X183411905Y-96022319D02*
X183411905Y-95022319D01*
X183411905Y-95022319D02*
X183650000Y-95022319D01*
X183650000Y-95022319D02*
X183792857Y-95069938D01*
X183792857Y-95069938D02*
X183888095Y-95165176D01*
X183888095Y-95165176D02*
X183935714Y-95260414D01*
X183935714Y-95260414D02*
X183983333Y-95450890D01*
X183983333Y-95450890D02*
X183983333Y-95593747D01*
X183983333Y-95593747D02*
X183935714Y-95784223D01*
X183935714Y-95784223D02*
X183888095Y-95879461D01*
X183888095Y-95879461D02*
X183792857Y-95974700D01*
X183792857Y-95974700D02*
X183650000Y-96022319D01*
X183650000Y-96022319D02*
X183411905Y-96022319D01*
X184888095Y-95022319D02*
X184411905Y-95022319D01*
X184411905Y-95022319D02*
X184364286Y-95498509D01*
X184364286Y-95498509D02*
X184411905Y-95450890D01*
X184411905Y-95450890D02*
X184507143Y-95403271D01*
X184507143Y-95403271D02*
X184745238Y-95403271D01*
X184745238Y-95403271D02*
X184840476Y-95450890D01*
X184840476Y-95450890D02*
X184888095Y-95498509D01*
X184888095Y-95498509D02*
X184935714Y-95593747D01*
X184935714Y-95593747D02*
X184935714Y-95831842D01*
X184935714Y-95831842D02*
X184888095Y-95927080D01*
X184888095Y-95927080D02*
X184840476Y-95974700D01*
X184840476Y-95974700D02*
X184745238Y-96022319D01*
X184745238Y-96022319D02*
X184507143Y-96022319D01*
X184507143Y-96022319D02*
X184411905Y-95974700D01*
X184411905Y-95974700D02*
X184364286Y-95927080D01*
X167854405Y-88719819D02*
X167854405Y-87719819D01*
X167854405Y-87719819D02*
X168092500Y-87719819D01*
X168092500Y-87719819D02*
X168235357Y-87767438D01*
X168235357Y-87767438D02*
X168330595Y-87862676D01*
X168330595Y-87862676D02*
X168378214Y-87957914D01*
X168378214Y-87957914D02*
X168425833Y-88148390D01*
X168425833Y-88148390D02*
X168425833Y-88291247D01*
X168425833Y-88291247D02*
X168378214Y-88481723D01*
X168378214Y-88481723D02*
X168330595Y-88576961D01*
X168330595Y-88576961D02*
X168235357Y-88672200D01*
X168235357Y-88672200D02*
X168092500Y-88719819D01*
X168092500Y-88719819D02*
X167854405Y-88719819D01*
X169282976Y-87719819D02*
X169092500Y-87719819D01*
X169092500Y-87719819D02*
X168997262Y-87767438D01*
X168997262Y-87767438D02*
X168949643Y-87815057D01*
X168949643Y-87815057D02*
X168854405Y-87957914D01*
X168854405Y-87957914D02*
X168806786Y-88148390D01*
X168806786Y-88148390D02*
X168806786Y-88529342D01*
X168806786Y-88529342D02*
X168854405Y-88624580D01*
X168854405Y-88624580D02*
X168902024Y-88672200D01*
X168902024Y-88672200D02*
X168997262Y-88719819D01*
X168997262Y-88719819D02*
X169187738Y-88719819D01*
X169187738Y-88719819D02*
X169282976Y-88672200D01*
X169282976Y-88672200D02*
X169330595Y-88624580D01*
X169330595Y-88624580D02*
X169378214Y-88529342D01*
X169378214Y-88529342D02*
X169378214Y-88291247D01*
X169378214Y-88291247D02*
X169330595Y-88196009D01*
X169330595Y-88196009D02*
X169282976Y-88148390D01*
X169282976Y-88148390D02*
X169187738Y-88100771D01*
X169187738Y-88100771D02*
X168997262Y-88100771D01*
X168997262Y-88100771D02*
X168902024Y-88148390D01*
X168902024Y-88148390D02*
X168854405Y-88196009D01*
X168854405Y-88196009D02*
X168806786Y-88291247D01*
X137766666Y-65204819D02*
X137766666Y-65919104D01*
X137766666Y-65919104D02*
X137719047Y-66061961D01*
X137719047Y-66061961D02*
X137623809Y-66157200D01*
X137623809Y-66157200D02*
X137480952Y-66204819D01*
X137480952Y-66204819D02*
X137385714Y-66204819D01*
X138766666Y-66204819D02*
X138195238Y-66204819D01*
X138480952Y-66204819D02*
X138480952Y-65204819D01*
X138480952Y-65204819D02*
X138385714Y-65347676D01*
X138385714Y-65347676D02*
X138290476Y-65442914D01*
X138290476Y-65442914D02*
X138195238Y-65490533D01*
X137731667Y-81052200D02*
X137874524Y-81099819D01*
X137874524Y-81099819D02*
X138112619Y-81099819D01*
X138112619Y-81099819D02*
X138207857Y-81052200D01*
X138207857Y-81052200D02*
X138255476Y-81004580D01*
X138255476Y-81004580D02*
X138303095Y-80909342D01*
X138303095Y-80909342D02*
X138303095Y-80814104D01*
X138303095Y-80814104D02*
X138255476Y-80718866D01*
X138255476Y-80718866D02*
X138207857Y-80671247D01*
X138207857Y-80671247D02*
X138112619Y-80623628D01*
X138112619Y-80623628D02*
X137922143Y-80576009D01*
X137922143Y-80576009D02*
X137826905Y-80528390D01*
X137826905Y-80528390D02*
X137779286Y-80480771D01*
X137779286Y-80480771D02*
X137731667Y-80385533D01*
X137731667Y-80385533D02*
X137731667Y-80290295D01*
X137731667Y-80290295D02*
X137779286Y-80195057D01*
X137779286Y-80195057D02*
X137826905Y-80147438D01*
X137826905Y-80147438D02*
X137922143Y-80099819D01*
X137922143Y-80099819D02*
X138160238Y-80099819D01*
X138160238Y-80099819D02*
X138303095Y-80147438D01*
X138636429Y-80099819D02*
X138874524Y-81099819D01*
X138874524Y-81099819D02*
X139065000Y-80385533D01*
X139065000Y-80385533D02*
X139255476Y-81099819D01*
X139255476Y-81099819D02*
X139493572Y-80099819D01*
X139826905Y-80195057D02*
X139874524Y-80147438D01*
X139874524Y-80147438D02*
X139969762Y-80099819D01*
X139969762Y-80099819D02*
X140207857Y-80099819D01*
X140207857Y-80099819D02*
X140303095Y-80147438D01*
X140303095Y-80147438D02*
X140350714Y-80195057D01*
X140350714Y-80195057D02*
X140398333Y-80290295D01*
X140398333Y-80290295D02*
X140398333Y-80385533D01*
X140398333Y-80385533D02*
X140350714Y-80528390D01*
X140350714Y-80528390D02*
X139779286Y-81099819D01*
X139779286Y-81099819D02*
X140398333Y-81099819D01*
X170833333Y-98954819D02*
X170500000Y-98478628D01*
X170261905Y-98954819D02*
X170261905Y-97954819D01*
X170261905Y-97954819D02*
X170642857Y-97954819D01*
X170642857Y-97954819D02*
X170738095Y-98002438D01*
X170738095Y-98002438D02*
X170785714Y-98050057D01*
X170785714Y-98050057D02*
X170833333Y-98145295D01*
X170833333Y-98145295D02*
X170833333Y-98288152D01*
X170833333Y-98288152D02*
X170785714Y-98383390D01*
X170785714Y-98383390D02*
X170738095Y-98431009D01*
X170738095Y-98431009D02*
X170642857Y-98478628D01*
X170642857Y-98478628D02*
X170261905Y-98478628D01*
X171738095Y-97954819D02*
X171261905Y-97954819D01*
X171261905Y-97954819D02*
X171214286Y-98431009D01*
X171214286Y-98431009D02*
X171261905Y-98383390D01*
X171261905Y-98383390D02*
X171357143Y-98335771D01*
X171357143Y-98335771D02*
X171595238Y-98335771D01*
X171595238Y-98335771D02*
X171690476Y-98383390D01*
X171690476Y-98383390D02*
X171738095Y-98431009D01*
X171738095Y-98431009D02*
X171785714Y-98526247D01*
X171785714Y-98526247D02*
X171785714Y-98764342D01*
X171785714Y-98764342D02*
X171738095Y-98859580D01*
X171738095Y-98859580D02*
X171690476Y-98907200D01*
X171690476Y-98907200D02*
X171595238Y-98954819D01*
X171595238Y-98954819D02*
X171357143Y-98954819D01*
X171357143Y-98954819D02*
X171261905Y-98907200D01*
X171261905Y-98907200D02*
X171214286Y-98859580D01*
X156857142Y-80954819D02*
X156523809Y-80478628D01*
X156285714Y-80954819D02*
X156285714Y-79954819D01*
X156285714Y-79954819D02*
X156666666Y-79954819D01*
X156666666Y-79954819D02*
X156761904Y-80002438D01*
X156761904Y-80002438D02*
X156809523Y-80050057D01*
X156809523Y-80050057D02*
X156857142Y-80145295D01*
X156857142Y-80145295D02*
X156857142Y-80288152D01*
X156857142Y-80288152D02*
X156809523Y-80383390D01*
X156809523Y-80383390D02*
X156761904Y-80431009D01*
X156761904Y-80431009D02*
X156666666Y-80478628D01*
X156666666Y-80478628D02*
X156285714Y-80478628D01*
X157809523Y-80954819D02*
X157238095Y-80954819D01*
X157523809Y-80954819D02*
X157523809Y-79954819D01*
X157523809Y-79954819D02*
X157428571Y-80097676D01*
X157428571Y-80097676D02*
X157333333Y-80192914D01*
X157333333Y-80192914D02*
X157238095Y-80240533D01*
X158666666Y-80288152D02*
X158666666Y-80954819D01*
X158428571Y-79907200D02*
X158190476Y-80621485D01*
X158190476Y-80621485D02*
X158809523Y-80621485D01*
X160357142Y-80954819D02*
X160023809Y-80478628D01*
X159785714Y-80954819D02*
X159785714Y-79954819D01*
X159785714Y-79954819D02*
X160166666Y-79954819D01*
X160166666Y-79954819D02*
X160261904Y-80002438D01*
X160261904Y-80002438D02*
X160309523Y-80050057D01*
X160309523Y-80050057D02*
X160357142Y-80145295D01*
X160357142Y-80145295D02*
X160357142Y-80288152D01*
X160357142Y-80288152D02*
X160309523Y-80383390D01*
X160309523Y-80383390D02*
X160261904Y-80431009D01*
X160261904Y-80431009D02*
X160166666Y-80478628D01*
X160166666Y-80478628D02*
X159785714Y-80478628D01*
X161309523Y-80954819D02*
X160738095Y-80954819D01*
X161023809Y-80954819D02*
X161023809Y-79954819D01*
X161023809Y-79954819D02*
X160928571Y-80097676D01*
X160928571Y-80097676D02*
X160833333Y-80192914D01*
X160833333Y-80192914D02*
X160738095Y-80240533D01*
X161642857Y-79954819D02*
X162261904Y-79954819D01*
X162261904Y-79954819D02*
X161928571Y-80335771D01*
X161928571Y-80335771D02*
X162071428Y-80335771D01*
X162071428Y-80335771D02*
X162166666Y-80383390D01*
X162166666Y-80383390D02*
X162214285Y-80431009D01*
X162214285Y-80431009D02*
X162261904Y-80526247D01*
X162261904Y-80526247D02*
X162261904Y-80764342D01*
X162261904Y-80764342D02*
X162214285Y-80859580D01*
X162214285Y-80859580D02*
X162166666Y-80907200D01*
X162166666Y-80907200D02*
X162071428Y-80954819D01*
X162071428Y-80954819D02*
X161785714Y-80954819D01*
X161785714Y-80954819D02*
X161690476Y-80907200D01*
X161690476Y-80907200D02*
X161642857Y-80859580D01*
X151915833Y-95292080D02*
X151868214Y-95339700D01*
X151868214Y-95339700D02*
X151725357Y-95387319D01*
X151725357Y-95387319D02*
X151630119Y-95387319D01*
X151630119Y-95387319D02*
X151487262Y-95339700D01*
X151487262Y-95339700D02*
X151392024Y-95244461D01*
X151392024Y-95244461D02*
X151344405Y-95149223D01*
X151344405Y-95149223D02*
X151296786Y-94958747D01*
X151296786Y-94958747D02*
X151296786Y-94815890D01*
X151296786Y-94815890D02*
X151344405Y-94625414D01*
X151344405Y-94625414D02*
X151392024Y-94530176D01*
X151392024Y-94530176D02*
X151487262Y-94434938D01*
X151487262Y-94434938D02*
X151630119Y-94387319D01*
X151630119Y-94387319D02*
X151725357Y-94387319D01*
X151725357Y-94387319D02*
X151868214Y-94434938D01*
X151868214Y-94434938D02*
X151915833Y-94482557D01*
X152249167Y-94387319D02*
X152868214Y-94387319D01*
X152868214Y-94387319D02*
X152534881Y-94768271D01*
X152534881Y-94768271D02*
X152677738Y-94768271D01*
X152677738Y-94768271D02*
X152772976Y-94815890D01*
X152772976Y-94815890D02*
X152820595Y-94863509D01*
X152820595Y-94863509D02*
X152868214Y-94958747D01*
X152868214Y-94958747D02*
X152868214Y-95196842D01*
X152868214Y-95196842D02*
X152820595Y-95292080D01*
X152820595Y-95292080D02*
X152772976Y-95339700D01*
X152772976Y-95339700D02*
X152677738Y-95387319D01*
X152677738Y-95387319D02*
X152392024Y-95387319D01*
X152392024Y-95387319D02*
X152296786Y-95339700D01*
X152296786Y-95339700D02*
X152249167Y-95292080D01*
X183729405Y-88402319D02*
X183729405Y-87402319D01*
X183729405Y-87402319D02*
X183967500Y-87402319D01*
X183967500Y-87402319D02*
X184110357Y-87449938D01*
X184110357Y-87449938D02*
X184205595Y-87545176D01*
X184205595Y-87545176D02*
X184253214Y-87640414D01*
X184253214Y-87640414D02*
X184300833Y-87830890D01*
X184300833Y-87830890D02*
X184300833Y-87973747D01*
X184300833Y-87973747D02*
X184253214Y-88164223D01*
X184253214Y-88164223D02*
X184205595Y-88259461D01*
X184205595Y-88259461D02*
X184110357Y-88354700D01*
X184110357Y-88354700D02*
X183967500Y-88402319D01*
X183967500Y-88402319D02*
X183729405Y-88402319D01*
X184634167Y-87402319D02*
X185300833Y-87402319D01*
X185300833Y-87402319D02*
X184872262Y-88402319D01*
X168171905Y-81099819D02*
X168171905Y-80099819D01*
X168171905Y-80099819D02*
X168410000Y-80099819D01*
X168410000Y-80099819D02*
X168552857Y-80147438D01*
X168552857Y-80147438D02*
X168648095Y-80242676D01*
X168648095Y-80242676D02*
X168695714Y-80337914D01*
X168695714Y-80337914D02*
X168743333Y-80528390D01*
X168743333Y-80528390D02*
X168743333Y-80671247D01*
X168743333Y-80671247D02*
X168695714Y-80861723D01*
X168695714Y-80861723D02*
X168648095Y-80956961D01*
X168648095Y-80956961D02*
X168552857Y-81052200D01*
X168552857Y-81052200D02*
X168410000Y-81099819D01*
X168410000Y-81099819D02*
X168171905Y-81099819D01*
X169600476Y-80433152D02*
X169600476Y-81099819D01*
X169362381Y-80052200D02*
X169124286Y-80766485D01*
X169124286Y-80766485D02*
X169743333Y-80766485D01*
X173266905Y-89454819D02*
X173266905Y-88454819D01*
X173266905Y-88454819D02*
X173505000Y-88454819D01*
X173505000Y-88454819D02*
X173647857Y-88502438D01*
X173647857Y-88502438D02*
X173743095Y-88597676D01*
X173743095Y-88597676D02*
X173790714Y-88692914D01*
X173790714Y-88692914D02*
X173838333Y-88883390D01*
X173838333Y-88883390D02*
X173838333Y-89026247D01*
X173838333Y-89026247D02*
X173790714Y-89216723D01*
X173790714Y-89216723D02*
X173743095Y-89311961D01*
X173743095Y-89311961D02*
X173647857Y-89407200D01*
X173647857Y-89407200D02*
X173505000Y-89454819D01*
X173505000Y-89454819D02*
X173266905Y-89454819D01*
X174790714Y-89454819D02*
X174219286Y-89454819D01*
X174505000Y-89454819D02*
X174505000Y-88454819D01*
X174505000Y-88454819D02*
X174409762Y-88597676D01*
X174409762Y-88597676D02*
X174314524Y-88692914D01*
X174314524Y-88692914D02*
X174219286Y-88740533D01*
X149833333Y-76584819D02*
X149500000Y-76108628D01*
X149261905Y-76584819D02*
X149261905Y-75584819D01*
X149261905Y-75584819D02*
X149642857Y-75584819D01*
X149642857Y-75584819D02*
X149738095Y-75632438D01*
X149738095Y-75632438D02*
X149785714Y-75680057D01*
X149785714Y-75680057D02*
X149833333Y-75775295D01*
X149833333Y-75775295D02*
X149833333Y-75918152D01*
X149833333Y-75918152D02*
X149785714Y-76013390D01*
X149785714Y-76013390D02*
X149738095Y-76061009D01*
X149738095Y-76061009D02*
X149642857Y-76108628D01*
X149642857Y-76108628D02*
X149261905Y-76108628D01*
X150166667Y-75584819D02*
X150785714Y-75584819D01*
X150785714Y-75584819D02*
X150452381Y-75965771D01*
X150452381Y-75965771D02*
X150595238Y-75965771D01*
X150595238Y-75965771D02*
X150690476Y-76013390D01*
X150690476Y-76013390D02*
X150738095Y-76061009D01*
X150738095Y-76061009D02*
X150785714Y-76156247D01*
X150785714Y-76156247D02*
X150785714Y-76394342D01*
X150785714Y-76394342D02*
X150738095Y-76489580D01*
X150738095Y-76489580D02*
X150690476Y-76537200D01*
X150690476Y-76537200D02*
X150595238Y-76584819D01*
X150595238Y-76584819D02*
X150309524Y-76584819D01*
X150309524Y-76584819D02*
X150214286Y-76537200D01*
X150214286Y-76537200D02*
X150166667Y-76489580D01*
X175569642Y-74749819D02*
X175236309Y-74273628D01*
X174998214Y-74749819D02*
X174998214Y-73749819D01*
X174998214Y-73749819D02*
X175379166Y-73749819D01*
X175379166Y-73749819D02*
X175474404Y-73797438D01*
X175474404Y-73797438D02*
X175522023Y-73845057D01*
X175522023Y-73845057D02*
X175569642Y-73940295D01*
X175569642Y-73940295D02*
X175569642Y-74083152D01*
X175569642Y-74083152D02*
X175522023Y-74178390D01*
X175522023Y-74178390D02*
X175474404Y-74226009D01*
X175474404Y-74226009D02*
X175379166Y-74273628D01*
X175379166Y-74273628D02*
X174998214Y-74273628D01*
X176522023Y-74749819D02*
X175950595Y-74749819D01*
X176236309Y-74749819D02*
X176236309Y-73749819D01*
X176236309Y-73749819D02*
X176141071Y-73892676D01*
X176141071Y-73892676D02*
X176045833Y-73987914D01*
X176045833Y-73987914D02*
X175950595Y-74035533D01*
X176902976Y-73845057D02*
X176950595Y-73797438D01*
X176950595Y-73797438D02*
X177045833Y-73749819D01*
X177045833Y-73749819D02*
X177283928Y-73749819D01*
X177283928Y-73749819D02*
X177379166Y-73797438D01*
X177379166Y-73797438D02*
X177426785Y-73845057D01*
X177426785Y-73845057D02*
X177474404Y-73940295D01*
X177474404Y-73940295D02*
X177474404Y-74035533D01*
X177474404Y-74035533D02*
X177426785Y-74178390D01*
X177426785Y-74178390D02*
X176855357Y-74749819D01*
X176855357Y-74749819D02*
X177474404Y-74749819D01*
X145666667Y-89907200D02*
X145809524Y-89954819D01*
X145809524Y-89954819D02*
X146047619Y-89954819D01*
X146047619Y-89954819D02*
X146142857Y-89907200D01*
X146142857Y-89907200D02*
X146190476Y-89859580D01*
X146190476Y-89859580D02*
X146238095Y-89764342D01*
X146238095Y-89764342D02*
X146238095Y-89669104D01*
X146238095Y-89669104D02*
X146190476Y-89573866D01*
X146190476Y-89573866D02*
X146142857Y-89526247D01*
X146142857Y-89526247D02*
X146047619Y-89478628D01*
X146047619Y-89478628D02*
X145857143Y-89431009D01*
X145857143Y-89431009D02*
X145761905Y-89383390D01*
X145761905Y-89383390D02*
X145714286Y-89335771D01*
X145714286Y-89335771D02*
X145666667Y-89240533D01*
X145666667Y-89240533D02*
X145666667Y-89145295D01*
X145666667Y-89145295D02*
X145714286Y-89050057D01*
X145714286Y-89050057D02*
X145761905Y-89002438D01*
X145761905Y-89002438D02*
X145857143Y-88954819D01*
X145857143Y-88954819D02*
X146095238Y-88954819D01*
X146095238Y-88954819D02*
X146238095Y-89002438D01*
X146571429Y-88954819D02*
X146809524Y-89954819D01*
X146809524Y-89954819D02*
X147000000Y-89240533D01*
X147000000Y-89240533D02*
X147190476Y-89954819D01*
X147190476Y-89954819D02*
X147428572Y-88954819D01*
X148333333Y-89954819D02*
X147761905Y-89954819D01*
X148047619Y-89954819D02*
X148047619Y-88954819D01*
X148047619Y-88954819D02*
X147952381Y-89097676D01*
X147952381Y-89097676D02*
X147857143Y-89192914D01*
X147857143Y-89192914D02*
X147761905Y-89240533D01*
X162333333Y-98454819D02*
X162000000Y-97978628D01*
X161761905Y-98454819D02*
X161761905Y-97454819D01*
X161761905Y-97454819D02*
X162142857Y-97454819D01*
X162142857Y-97454819D02*
X162238095Y-97502438D01*
X162238095Y-97502438D02*
X162285714Y-97550057D01*
X162285714Y-97550057D02*
X162333333Y-97645295D01*
X162333333Y-97645295D02*
X162333333Y-97788152D01*
X162333333Y-97788152D02*
X162285714Y-97883390D01*
X162285714Y-97883390D02*
X162238095Y-97931009D01*
X162238095Y-97931009D02*
X162142857Y-97978628D01*
X162142857Y-97978628D02*
X161761905Y-97978628D01*
X162904762Y-97883390D02*
X162809524Y-97835771D01*
X162809524Y-97835771D02*
X162761905Y-97788152D01*
X162761905Y-97788152D02*
X162714286Y-97692914D01*
X162714286Y-97692914D02*
X162714286Y-97645295D01*
X162714286Y-97645295D02*
X162761905Y-97550057D01*
X162761905Y-97550057D02*
X162809524Y-97502438D01*
X162809524Y-97502438D02*
X162904762Y-97454819D01*
X162904762Y-97454819D02*
X163095238Y-97454819D01*
X163095238Y-97454819D02*
X163190476Y-97502438D01*
X163190476Y-97502438D02*
X163238095Y-97550057D01*
X163238095Y-97550057D02*
X163285714Y-97645295D01*
X163285714Y-97645295D02*
X163285714Y-97692914D01*
X163285714Y-97692914D02*
X163238095Y-97788152D01*
X163238095Y-97788152D02*
X163190476Y-97835771D01*
X163190476Y-97835771D02*
X163095238Y-97883390D01*
X163095238Y-97883390D02*
X162904762Y-97883390D01*
X162904762Y-97883390D02*
X162809524Y-97931009D01*
X162809524Y-97931009D02*
X162761905Y-97978628D01*
X162761905Y-97978628D02*
X162714286Y-98073866D01*
X162714286Y-98073866D02*
X162714286Y-98264342D01*
X162714286Y-98264342D02*
X162761905Y-98359580D01*
X162761905Y-98359580D02*
X162809524Y-98407200D01*
X162809524Y-98407200D02*
X162904762Y-98454819D01*
X162904762Y-98454819D02*
X163095238Y-98454819D01*
X163095238Y-98454819D02*
X163190476Y-98407200D01*
X163190476Y-98407200D02*
X163238095Y-98359580D01*
X163238095Y-98359580D02*
X163285714Y-98264342D01*
X163285714Y-98264342D02*
X163285714Y-98073866D01*
X163285714Y-98073866D02*
X163238095Y-97978628D01*
X163238095Y-97978628D02*
X163190476Y-97931009D01*
X163190476Y-97931009D02*
X163095238Y-97883390D01*
X168489405Y-96022319D02*
X168489405Y-95022319D01*
X168489405Y-95022319D02*
X168727500Y-95022319D01*
X168727500Y-95022319D02*
X168870357Y-95069938D01*
X168870357Y-95069938D02*
X168965595Y-95165176D01*
X168965595Y-95165176D02*
X169013214Y-95260414D01*
X169013214Y-95260414D02*
X169060833Y-95450890D01*
X169060833Y-95450890D02*
X169060833Y-95593747D01*
X169060833Y-95593747D02*
X169013214Y-95784223D01*
X169013214Y-95784223D02*
X168965595Y-95879461D01*
X168965595Y-95879461D02*
X168870357Y-95974700D01*
X168870357Y-95974700D02*
X168727500Y-96022319D01*
X168727500Y-96022319D02*
X168489405Y-96022319D01*
X169441786Y-95117557D02*
X169489405Y-95069938D01*
X169489405Y-95069938D02*
X169584643Y-95022319D01*
X169584643Y-95022319D02*
X169822738Y-95022319D01*
X169822738Y-95022319D02*
X169917976Y-95069938D01*
X169917976Y-95069938D02*
X169965595Y-95117557D01*
X169965595Y-95117557D02*
X170013214Y-95212795D01*
X170013214Y-95212795D02*
X170013214Y-95308033D01*
X170013214Y-95308033D02*
X169965595Y-95450890D01*
X169965595Y-95450890D02*
X169394167Y-96022319D01*
X169394167Y-96022319D02*
X170013214Y-96022319D01*
X167544761Y-99292557D02*
X167449523Y-99244938D01*
X167449523Y-99244938D02*
X167354285Y-99149700D01*
X167354285Y-99149700D02*
X167211428Y-99006842D01*
X167211428Y-99006842D02*
X167116190Y-98959223D01*
X167116190Y-98959223D02*
X167020952Y-98959223D01*
X167068571Y-99197319D02*
X166973333Y-99149700D01*
X166973333Y-99149700D02*
X166878095Y-99054461D01*
X166878095Y-99054461D02*
X166830476Y-98863985D01*
X166830476Y-98863985D02*
X166830476Y-98530652D01*
X166830476Y-98530652D02*
X166878095Y-98340176D01*
X166878095Y-98340176D02*
X166973333Y-98244938D01*
X166973333Y-98244938D02*
X167068571Y-98197319D01*
X167068571Y-98197319D02*
X167259047Y-98197319D01*
X167259047Y-98197319D02*
X167354285Y-98244938D01*
X167354285Y-98244938D02*
X167449523Y-98340176D01*
X167449523Y-98340176D02*
X167497142Y-98530652D01*
X167497142Y-98530652D02*
X167497142Y-98863985D01*
X167497142Y-98863985D02*
X167449523Y-99054461D01*
X167449523Y-99054461D02*
X167354285Y-99149700D01*
X167354285Y-99149700D02*
X167259047Y-99197319D01*
X167259047Y-99197319D02*
X167068571Y-99197319D01*
X167830476Y-98197319D02*
X168449523Y-98197319D01*
X168449523Y-98197319D02*
X168116190Y-98578271D01*
X168116190Y-98578271D02*
X168259047Y-98578271D01*
X168259047Y-98578271D02*
X168354285Y-98625890D01*
X168354285Y-98625890D02*
X168401904Y-98673509D01*
X168401904Y-98673509D02*
X168449523Y-98768747D01*
X168449523Y-98768747D02*
X168449523Y-99006842D01*
X168449523Y-99006842D02*
X168401904Y-99102080D01*
X168401904Y-99102080D02*
X168354285Y-99149700D01*
X168354285Y-99149700D02*
X168259047Y-99197319D01*
X168259047Y-99197319D02*
X167973333Y-99197319D01*
X167973333Y-99197319D02*
X167878095Y-99149700D01*
X167878095Y-99149700D02*
X167830476Y-99102080D01*
X151915833Y-92752080D02*
X151868214Y-92799700D01*
X151868214Y-92799700D02*
X151725357Y-92847319D01*
X151725357Y-92847319D02*
X151630119Y-92847319D01*
X151630119Y-92847319D02*
X151487262Y-92799700D01*
X151487262Y-92799700D02*
X151392024Y-92704461D01*
X151392024Y-92704461D02*
X151344405Y-92609223D01*
X151344405Y-92609223D02*
X151296786Y-92418747D01*
X151296786Y-92418747D02*
X151296786Y-92275890D01*
X151296786Y-92275890D02*
X151344405Y-92085414D01*
X151344405Y-92085414D02*
X151392024Y-91990176D01*
X151392024Y-91990176D02*
X151487262Y-91894938D01*
X151487262Y-91894938D02*
X151630119Y-91847319D01*
X151630119Y-91847319D02*
X151725357Y-91847319D01*
X151725357Y-91847319D02*
X151868214Y-91894938D01*
X151868214Y-91894938D02*
X151915833Y-91942557D01*
X152296786Y-91942557D02*
X152344405Y-91894938D01*
X152344405Y-91894938D02*
X152439643Y-91847319D01*
X152439643Y-91847319D02*
X152677738Y-91847319D01*
X152677738Y-91847319D02*
X152772976Y-91894938D01*
X152772976Y-91894938D02*
X152820595Y-91942557D01*
X152820595Y-91942557D02*
X152868214Y-92037795D01*
X152868214Y-92037795D02*
X152868214Y-92133033D01*
X152868214Y-92133033D02*
X152820595Y-92275890D01*
X152820595Y-92275890D02*
X152249167Y-92847319D01*
X152249167Y-92847319D02*
X152868214Y-92847319D01*
D11*
X156590000Y-63660000D02*
X156590000Y-68960000D01*
X156590000Y-68960000D02*
X177030000Y-68960000D01*
X177030000Y-63660000D02*
X156590000Y-63660000D01*
X177030000Y-65310000D02*
X177030000Y-63660000D01*
X177030000Y-68960000D02*
X177030000Y-67310000D01*
X177030000Y-67310000D02*
G75*
G02*
X177030000Y-65310000I0J1000000D01*
G01*
X172630000Y-101040000D02*
X172960000Y-101040000D01*
X172630000Y-107580000D02*
X172630000Y-101040000D01*
X172960000Y-107580000D02*
X172630000Y-107580000D01*
X175040000Y-107580000D02*
X175370000Y-107580000D01*
X175370000Y-101040000D02*
X175040000Y-101040000D01*
X175370000Y-107580000D02*
X175370000Y-101040000D01*
X155130000Y-100540000D02*
X155460000Y-100540000D01*
X155130000Y-107080000D02*
X155130000Y-100540000D01*
X155460000Y-107080000D02*
X155130000Y-107080000D01*
X157540000Y-107080000D02*
X157870000Y-107080000D01*
X157870000Y-100540000D02*
X157540000Y-100540000D01*
X157870000Y-107080000D02*
X157870000Y-100540000D01*
X139130000Y-64040000D02*
X139460000Y-64040000D01*
X139130000Y-70580000D02*
X139130000Y-64040000D01*
X139460000Y-70580000D02*
X139130000Y-70580000D01*
X141540000Y-70580000D02*
X141870000Y-70580000D01*
X141870000Y-64040000D02*
X141540000Y-64040000D01*
X141870000Y-70580000D02*
X141870000Y-64040000D01*
X153130000Y-82730000D02*
X153460000Y-82730000D01*
X153130000Y-89270000D02*
X153130000Y-82730000D01*
X153460000Y-89270000D02*
X153130000Y-89270000D01*
X155540000Y-89270000D02*
X155870000Y-89270000D01*
X155870000Y-82730000D02*
X155540000Y-82730000D01*
X155870000Y-89270000D02*
X155870000Y-82730000D01*
X180200000Y-102850000D02*
X183800000Y-102850000D01*
X180161522Y-102838478D02*
G75*
G02*
X182000000Y-98399999I1838478J1838478D01*
G01*
X182000000Y-98400000D02*
G75*
G02*
X183838478Y-102838478I0J-2600000D01*
G01*
X175630000Y-101040000D02*
X175960000Y-101040000D01*
X175630000Y-107580000D02*
X175630000Y-101040000D01*
X175960000Y-107580000D02*
X175630000Y-107580000D01*
X178040000Y-107580000D02*
X178370000Y-107580000D01*
X178370000Y-101040000D02*
X178040000Y-101040000D01*
X178370000Y-107580000D02*
X178370000Y-101040000D01*
X143260000Y-95250000D02*
G75*
G02*
X131060000Y-95250000I-6100000J0D01*
G01*
X131060000Y-95250000D02*
G75*
G02*
X143260000Y-95250000I6100000J0D01*
G01*
X178440000Y-75955000D02*
X178440000Y-79045000D01*
X178440000Y-75955170D02*
G75*
G02*
X183990000Y-77500462I2560000J-1544830D01*
G01*
X183990000Y-77499538D02*
G75*
G02*
X178440000Y-79044830I-2990000J-462D01*
G01*
X183500000Y-77500000D02*
G75*
G02*
X178500000Y-77500000I-2500000J0D01*
G01*
X178500000Y-77500000D02*
G75*
G02*
X183500000Y-77500000I2500000J0D01*
G01*
X145860000Y-97870000D02*
X145860000Y-108150000D01*
X145860000Y-108150000D02*
X151160000Y-108150000D01*
X147510000Y-97870000D02*
X145860000Y-97870000D01*
X151160000Y-97870000D02*
X149510000Y-97870000D01*
X151160000Y-108150000D02*
X151160000Y-97870000D01*
X149510000Y-97870000D02*
G75*
G02*
X147510000Y-97870000I-1000000J0D01*
G01*
X143150000Y-63470000D02*
X143150000Y-67070000D01*
X143161522Y-63431522D02*
G75*
G02*
X147600001Y-65270000I1838478J-1838478D01*
G01*
X147600000Y-65270000D02*
G75*
G02*
X143161522Y-67108478I-2600000J0D01*
G01*
X148130000Y-64040000D02*
X148130000Y-70580000D01*
X148130000Y-70580000D02*
X148460000Y-70580000D01*
X148460000Y-64040000D02*
X148130000Y-64040000D01*
X150540000Y-64040000D02*
X150870000Y-64040000D01*
X150870000Y-64040000D02*
X150870000Y-70580000D01*
X150870000Y-70580000D02*
X150540000Y-70580000D01*
X158130000Y-100540000D02*
X158460000Y-100540000D01*
X158130000Y-107080000D02*
X158130000Y-100540000D01*
X158460000Y-107080000D02*
X158130000Y-107080000D01*
X160540000Y-107080000D02*
X160870000Y-107080000D01*
X160870000Y-100540000D02*
X160540000Y-100540000D01*
X160870000Y-107080000D02*
X160870000Y-100540000D01*
X143430000Y-70230000D02*
X143430000Y-74770000D01*
X143445000Y-70230000D02*
X143430000Y-70230000D01*
X143445000Y-74770000D02*
X143430000Y-74770000D01*
X145570000Y-70230000D02*
X145555000Y-70230000D01*
X145570000Y-70230000D02*
X145570000Y-74770000D01*
X145570000Y-74770000D02*
X145555000Y-74770000D01*
X154540000Y-73630000D02*
X154540000Y-73960000D01*
X154540000Y-76370000D02*
X154540000Y-76040000D01*
X161080000Y-73630000D02*
X154540000Y-73630000D01*
X161080000Y-73960000D02*
X161080000Y-73630000D01*
X161080000Y-76040000D02*
X161080000Y-76370000D01*
X161080000Y-76370000D02*
X154540000Y-76370000D01*
X178435000Y-90955000D02*
X178435000Y-94045000D01*
X178435000Y-90955170D02*
G75*
G02*
X183985000Y-92500462I2560000J-1544830D01*
G01*
X183985000Y-92499538D02*
G75*
G02*
X178435000Y-94044830I-2990000J-462D01*
G01*
X183495000Y-92500000D02*
G75*
G02*
X178495000Y-92500000I-2500000J0D01*
G01*
X178495000Y-92500000D02*
G75*
G02*
X183495000Y-92500000I2500000J0D01*
G01*
X163435000Y-83455000D02*
X163435000Y-86545000D01*
X163435000Y-83455170D02*
G75*
G02*
X168985000Y-85000462I2560000J-1544830D01*
G01*
X168985000Y-84999538D02*
G75*
G02*
X163435000Y-86544830I-2990000J-462D01*
G01*
X168495000Y-85000000D02*
G75*
G02*
X163495000Y-85000000I-2500000J0D01*
G01*
X163495000Y-85000000D02*
G75*
G02*
X168495000Y-85000000I2500000J0D01*
G01*
X131540000Y-66840000D02*
X138660000Y-66840000D01*
X131540000Y-74660000D02*
X131540000Y-66840000D01*
X131540000Y-74660000D02*
X138660000Y-74660000D01*
X137100000Y-74660000D02*
X137100000Y-66840000D01*
X137160000Y-74900000D02*
X138900000Y-74900000D01*
X138660000Y-74660000D02*
X138660000Y-66840000D01*
X138900000Y-74900000D02*
X138900000Y-73400000D01*
X133567891Y-73107742D02*
G75*
G02*
X133568000Y-71892000I1432109J607742D01*
G01*
X134392258Y-71067891D02*
G75*
G02*
X135608000Y-71068000I607743J-1432112D01*
G01*
X135607742Y-73932109D02*
G75*
G02*
X134392000Y-73932000I-607742J1432109D01*
G01*
X136431385Y-71892413D02*
G75*
G02*
X136555000Y-72500000I-1431385J-607587D01*
G01*
X136555493Y-72472989D02*
G75*
G02*
X136432000Y-73108000I-1555481J-27013D01*
G01*
X136555000Y-69000000D02*
G75*
G02*
X133445000Y-69000000I-1555000J0D01*
G01*
X133445000Y-69000000D02*
G75*
G02*
X136555000Y-69000000I1555000J0D01*
G01*
D12*
X133500000Y-82000000D02*
X133500000Y-88500000D01*
X133500000Y-82000000D02*
X134000000Y-81500000D01*
X133500000Y-88500000D02*
X140500000Y-88500000D01*
X136000000Y-84000000D02*
X136000000Y-86000000D01*
X136000000Y-86000000D02*
X138000000Y-86000000D01*
X138000000Y-84000000D02*
X136000000Y-84000000D01*
X138000000Y-86000000D02*
X138000000Y-84000000D01*
X140500000Y-81500000D02*
X134000000Y-81500000D01*
X140500000Y-88500000D02*
X140500000Y-81500000D01*
D11*
X169630000Y-101040000D02*
X169960000Y-101040000D01*
X169630000Y-107580000D02*
X169630000Y-101040000D01*
X169960000Y-107580000D02*
X169630000Y-107580000D01*
X172040000Y-107580000D02*
X172370000Y-107580000D01*
X172370000Y-101040000D02*
X172040000Y-101040000D01*
X172370000Y-107580000D02*
X172370000Y-101040000D01*
X156130000Y-82730000D02*
X156130000Y-89270000D01*
X156130000Y-89270000D02*
X156460000Y-89270000D01*
X156460000Y-82730000D02*
X156130000Y-82730000D01*
X158540000Y-82730000D02*
X158870000Y-82730000D01*
X158870000Y-82730000D02*
X158870000Y-89270000D01*
X158870000Y-89270000D02*
X158540000Y-89270000D01*
X159130000Y-82730000D02*
X159460000Y-82730000D01*
X159130000Y-89270000D02*
X159130000Y-82730000D01*
X159460000Y-89270000D02*
X159130000Y-89270000D01*
X161540000Y-89270000D02*
X161870000Y-89270000D01*
X161870000Y-82730000D02*
X161540000Y-82730000D01*
X161870000Y-89270000D02*
X161870000Y-82730000D01*
X159115000Y-96055000D02*
X159115000Y-96070000D01*
X159115000Y-93930000D02*
X159115000Y-93945000D01*
X154575000Y-96070000D02*
X159115000Y-96070000D01*
X154575000Y-96055000D02*
X154575000Y-96070000D01*
X154575000Y-93930000D02*
X159115000Y-93930000D01*
X154575000Y-93930000D02*
X154575000Y-93945000D01*
X178435000Y-83455000D02*
X178435000Y-86545000D01*
X178435000Y-83455170D02*
G75*
G02*
X183985000Y-85000462I2560000J-1544830D01*
G01*
X183985000Y-84999538D02*
G75*
G02*
X178435000Y-86544830I-2990000J-462D01*
G01*
X183495000Y-85000000D02*
G75*
G02*
X178495000Y-85000000I-2500000J0D01*
G01*
X178495000Y-85000000D02*
G75*
G02*
X183495000Y-85000000I2500000J0D01*
G01*
X163435000Y-75955000D02*
X163435000Y-79045000D01*
X163435000Y-75955170D02*
G75*
G02*
X168985000Y-77500462I2560000J-1544830D01*
G01*
X168985000Y-77499538D02*
G75*
G02*
X163435000Y-79044830I-2990000J-462D01*
G01*
X168495000Y-77500000D02*
G75*
G02*
X163495000Y-77500000I-2500000J0D01*
G01*
X163495000Y-77500000D02*
G75*
G02*
X168495000Y-77500000I2500000J0D01*
G01*
X170940000Y-83455000D02*
X170940000Y-86545000D01*
X170940000Y-83455170D02*
G75*
G02*
X176490000Y-85000462I2560000J-1544830D01*
G01*
X176490000Y-84999538D02*
G75*
G02*
X170940000Y-86544830I-2990000J-462D01*
G01*
X176000000Y-85000000D02*
G75*
G02*
X171000000Y-85000000I-2500000J0D01*
G01*
X171000000Y-85000000D02*
G75*
G02*
X176000000Y-85000000I2500000J0D01*
G01*
X144420000Y-77130000D02*
X150960000Y-77130000D01*
X144420000Y-77460000D02*
X144420000Y-77130000D01*
X144420000Y-79540000D02*
X144420000Y-79870000D01*
X144420000Y-79870000D02*
X150960000Y-79870000D01*
X150960000Y-77130000D02*
X150960000Y-77460000D01*
X150960000Y-79870000D02*
X150960000Y-79540000D01*
X171985000Y-73565000D02*
X172315000Y-73565000D01*
X171985000Y-80105000D02*
X171985000Y-73565000D01*
X172315000Y-80105000D02*
X171985000Y-80105000D01*
X174395000Y-80105000D02*
X174725000Y-80105000D01*
X174725000Y-73565000D02*
X174395000Y-73565000D01*
X174725000Y-80105000D02*
X174725000Y-73565000D01*
X143500000Y-84250000D02*
X143500000Y-85750000D01*
X144750000Y-88250000D02*
X149250000Y-88250000D01*
X149250000Y-81750000D02*
X144750000Y-81750000D01*
X150500000Y-85750000D02*
X150500000Y-84250000D01*
X161130000Y-100540000D02*
X161460000Y-100540000D01*
X161130000Y-107080000D02*
X161130000Y-100540000D01*
X161460000Y-107080000D02*
X161130000Y-107080000D01*
X163540000Y-107080000D02*
X163870000Y-107080000D01*
X163870000Y-100540000D02*
X163540000Y-100540000D01*
X163870000Y-107080000D02*
X163870000Y-100540000D01*
X163440000Y-90955000D02*
X163440000Y-94045000D01*
X163440000Y-90955170D02*
G75*
G02*
X168990000Y-92500462I2560000J-1544830D01*
G01*
X168990000Y-92499538D02*
G75*
G02*
X163440000Y-94044830I-2990000J-462D01*
G01*
X168500000Y-92500000D02*
G75*
G02*
X163500000Y-92500000I-2500000J0D01*
G01*
X163500000Y-92500000D02*
G75*
G02*
X168500000Y-92500000I2500000J0D01*
G01*
X164650000Y-100470000D02*
X164650000Y-104070000D01*
X164661522Y-100431522D02*
G75*
G02*
X169100001Y-102270000I1838478J-1838478D01*
G01*
X169100000Y-102270000D02*
G75*
G02*
X164661522Y-104108478I-2600000J0D01*
G01*
X159115000Y-93555000D02*
X159115000Y-93570000D01*
X159115000Y-91430000D02*
X159115000Y-91445000D01*
X154575000Y-93570000D02*
X159115000Y-93570000D01*
X154575000Y-93555000D02*
X154575000Y-93570000D01*
X154575000Y-91430000D02*
X159115000Y-91430000D01*
X154575000Y-91430000D02*
X154575000Y-91445000D01*
%LPC*%
D13*
X136400000Y-78000000D02*
G75*
G02*
X133600000Y-78000000I-1400000J0D01*
G01*
X133600000Y-78000000D02*
G75*
G02*
X136400000Y-78000000I1400000J0D01*
G01*
X149400000Y-93000000D02*
G75*
G02*
X146600000Y-93000000I-1400000J0D01*
G01*
X146600000Y-93000000D02*
G75*
G02*
X149400000Y-93000000I1400000J0D01*
G01*
X175400000Y-93000000D02*
G75*
G02*
X172600000Y-93000000I-1400000J0D01*
G01*
X172600000Y-93000000D02*
G75*
G02*
X175400000Y-93000000I1400000J0D01*
G01*
X182400000Y-71000000D02*
G75*
G02*
X179600000Y-71000000I-1400000J0D01*
G01*
X179600000Y-71000000D02*
G75*
G02*
X182400000Y-71000000I1400000J0D01*
G01*
D14*
X175700000Y-62500000D03*
D15*
X173160000Y-62500000D03*
X170620000Y-62500000D03*
X168080000Y-62500000D03*
X165540000Y-62500000D03*
X163000000Y-62500000D03*
X160460000Y-62500000D03*
X157920000Y-62500000D03*
X157920000Y-70120000D03*
X160460000Y-70120000D03*
X163000000Y-70120000D03*
X165540000Y-70120000D03*
X168080000Y-70120000D03*
X170620000Y-70120000D03*
X173160000Y-70120000D03*
X175700000Y-70120000D03*
D16*
X174000000Y-108120000D03*
D15*
X174000000Y-100500000D03*
D16*
X156500000Y-107620000D03*
D15*
X156500000Y-100000000D03*
D16*
X140500000Y-71120000D03*
D15*
X140500000Y-63500000D03*
D16*
X154500000Y-89810000D03*
D15*
X154500000Y-82190000D03*
D17*
X180730000Y-101000000D03*
D18*
X182000000Y-101000000D03*
X183270000Y-101000000D03*
D16*
X177000000Y-108120000D03*
D15*
X177000000Y-100500000D03*
D19*
X133360000Y-95250000D03*
D20*
X140960000Y-95250000D03*
D21*
X179730000Y-77500000D03*
D22*
X182270000Y-77500000D03*
D14*
X144700000Y-99200000D03*
D15*
X144700000Y-101740000D03*
X144700000Y-104280000D03*
X144700000Y-106820000D03*
X152320000Y-106820000D03*
X152320000Y-104280000D03*
X152320000Y-101740000D03*
X152320000Y-99200000D03*
D23*
X145000000Y-64000000D03*
D24*
X145000000Y-65270000D03*
X145000000Y-66540000D03*
D16*
X149500000Y-63500000D03*
D15*
X149500000Y-71120000D03*
D16*
X159500000Y-107620000D03*
D15*
X159500000Y-100000000D03*
D16*
X144500000Y-70000000D03*
X144500000Y-75000000D03*
X161620000Y-75000000D03*
D15*
X154000000Y-75000000D03*
D21*
X179725000Y-92500000D03*
D22*
X182265000Y-92500000D03*
D21*
X164725000Y-85000000D03*
D22*
X167265000Y-85000000D03*
D25*
X135000000Y-72500000D03*
D26*
X135000000Y-69000000D03*
D14*
X135000000Y-82500000D03*
D16*
X137000000Y-82500000D03*
X139000000Y-82500000D03*
X135000000Y-87500000D03*
X137000000Y-87500000D03*
X139000000Y-87500000D03*
X171000000Y-108120000D03*
D15*
X171000000Y-100500000D03*
D16*
X157500000Y-82190000D03*
D15*
X157500000Y-89810000D03*
D16*
X160500000Y-89810000D03*
D15*
X160500000Y-82190000D03*
D16*
X154345000Y-95000000D03*
X159345000Y-95000000D03*
D21*
X179725000Y-85000000D03*
D22*
X182265000Y-85000000D03*
D21*
X164725000Y-77500000D03*
D22*
X167265000Y-77500000D03*
D21*
X172230000Y-85000000D03*
D22*
X174770000Y-85000000D03*
D16*
X143880000Y-78500000D03*
D15*
X151500000Y-78500000D03*
D16*
X173355000Y-80645000D03*
D15*
X173355000Y-73025000D03*
D20*
X143750000Y-82750000D03*
X150250000Y-82750000D03*
X143750000Y-87250000D03*
X150250000Y-87250000D03*
D16*
X162500000Y-107620000D03*
D15*
X162500000Y-100000000D03*
D21*
X164730000Y-92500000D03*
D22*
X167270000Y-92500000D03*
D23*
X166500000Y-101000000D03*
D24*
X166500000Y-102270000D03*
X166500000Y-103540000D03*
D16*
X154345000Y-92500000D03*
X159345000Y-92500000D03*
%LPD*%
M02*
