M48
; DRILL file {KiCad 8.0.6} date 2025-01-02T19:05:00+0100
; FORMAT={-:-/ absolute / metric / decimal}
; #@! TF.CreationDate,2025-01-02T19:05:00+01:00
; #@! TF.GenerationSoftware,Kicad,Pcbnew,8.0.6
; #@! TF.FileFunction,Plated,1,2,PTH
FMAT,2
METRIC
; #@! TA.AperFunction,Plated,PTH,ViaDrill
T1C0.300
; #@! TA.AperFunction,Plated,PTH,ComponentDrill
T2C0.750
; #@! TA.AperFunction,Plated,PTH,ComponentDrill
T3C0.800
; #@! TA.AperFunction,Plated,PTH,ComponentDrill
T4C0.900
; #@! TA.AperFunction,Plated,PTH,ComponentDrill
T5C1.000
; #@! TA.AperFunction,Plated,PTH,ComponentDrill
T6C1.100
; #@! TA.AperFunction,Plated,PTH,ComponentDrill
T7C1.200
; #@! TA.AperFunction,Plated,PTH,ViaDrill
T8C3.000
%
G90
G05
T1
X147.0Y-72.5
X147.5Y-102.5
X148.5Y-66.5
X149.5Y-102.5
X152.5Y-72.0
X161.0Y-72.0
X165.5Y-106.0
X166.0Y-97.5
X166.0Y-98.5
X167.5Y-97.0
X171.0Y-97.0
X177.0Y-82.7
X184.0Y-97.5
X185.0Y-98.0
X186.5Y-98.5
T2
X145.0Y-64.0
X145.0Y-65.27
X145.0Y-66.54
X166.5Y-101.0
X166.5Y-102.27
X166.5Y-103.54
X180.73Y-101.0
X182.0Y-101.0
X183.27Y-101.0
T3
X140.5Y-63.5
X140.5Y-71.12
X143.88Y-78.5
X144.5Y-70.0
X144.5Y-75.0
X144.7Y-99.2
X144.7Y-101.74
X144.7Y-104.28
X144.7Y-106.82
X149.5Y-63.5
X149.5Y-71.12
X151.5Y-78.5
X152.32Y-99.2
X152.32Y-101.74
X152.32Y-104.28
X152.32Y-106.82
X154.0Y-75.0
X154.345Y-92.5
X154.345Y-95.0
X154.5Y-82.19
X154.5Y-89.81
X156.5Y-100.0
X156.5Y-107.62
X157.5Y-82.19
X157.5Y-89.81
X157.92Y-62.5
X157.92Y-70.12
X159.345Y-92.5
X159.345Y-95.0
X159.5Y-100.0
X159.5Y-107.62
X160.46Y-62.5
X160.46Y-70.12
X160.5Y-82.19
X160.5Y-89.81
X161.62Y-75.0
X162.5Y-100.0
X162.5Y-107.62
X163.0Y-62.5
X163.0Y-70.12
X165.54Y-62.5
X165.54Y-70.12
X168.08Y-62.5
X168.08Y-70.12
X170.62Y-62.5
X170.62Y-70.12
X171.0Y-100.5
X171.0Y-108.12
X173.16Y-62.5
X173.16Y-70.12
X173.355Y-73.025
X173.355Y-80.645
X174.0Y-100.5
X174.0Y-108.12
X175.7Y-62.5
X175.7Y-70.12
X177.0Y-100.5
X177.0Y-108.12
T4
X164.725Y-77.5
X164.725Y-85.0
X164.73Y-92.5
X167.265Y-77.5
X167.265Y-85.0
X167.27Y-92.5
X172.23Y-85.0
X174.77Y-85.0
X179.725Y-85.0
X179.725Y-92.5
X179.73Y-77.5
X182.265Y-85.0
X182.265Y-92.5
X182.27Y-77.5
T5
X133.36Y-95.25
X135.0Y-82.5
X135.0Y-87.5
X137.0Y-82.5
X137.0Y-87.5
X139.0Y-82.5
X139.0Y-87.5
X140.96Y-95.25
T6
X143.75Y-82.75
X143.75Y-87.25
X150.25Y-82.75
X150.25Y-87.25
T7
X135.0Y-69.0
X135.0Y-72.5
T8
X135.0Y-78.0
X148.0Y-93.0
X174.0Y-93.0
X181.0Y-71.0
M30
