G04 #@! TF.GenerationSoftware,KiCad,Pcbnew,8.0.6*
G04 #@! TF.CreationDate,2025-01-02T19:07:44+01:00*
G04 #@! TF.ProjectId,kostka,6b6f7374-6b61-42e6-9b69-6361645f7063,1*
G04 #@! TF.SameCoordinates,Original*
G04 #@! TF.FileFunction,Legend,Bot*
G04 #@! TF.FilePolarity,Positive*
%FSLAX46Y46*%
G04 Gerber Fmt 4.6, Leading zero omitted, Abs format (unit mm)*
G04 Created by KiCad (PCBNEW 8.0.6) date 2025-01-02 19:07:44*
%MOMM*%
%LPD*%
G01*
G04 APERTURE LIST*
%ADD10C,0.150000*%
%ADD11C,0.100000*%
%ADD12C,0.200000*%
%ADD13C,0.000000*%
%ADD14C,2.800000*%
%ADD15R,1.600000X1.600000*%
%ADD16O,1.600000X1.600000*%
%ADD17C,1.600000*%
%ADD18R,1.050000X1.500000*%
%ADD19O,1.050000X1.500000*%
%ADD20R,2.000000X2.000000*%
%ADD21C,2.000000*%
%ADD22R,1.800000X1.800000*%
%ADD23C,1.800000*%
%ADD24R,1.500000X1.050000*%
%ADD25O,1.500000X1.050000*%
%ADD26R,2.400000X2.400000*%
%ADD27C,2.400000*%
G04 APERTURE END LIST*
D10*
X137956847Y-72577149D02*
X137290180Y-72577149D01*
X138337800Y-72815244D02*
X137623514Y-73053339D01*
X137623514Y-73053339D02*
X137623514Y-72434292D01*
X137385419Y-72053339D02*
X137337800Y-72005720D01*
X137337800Y-72005720D02*
X137290180Y-72053339D01*
X137290180Y-72053339D02*
X137337800Y-72100958D01*
X137337800Y-72100958D02*
X137385419Y-72053339D01*
X137385419Y-72053339D02*
X137290180Y-72053339D01*
X138290180Y-71100959D02*
X138290180Y-71577149D01*
X138290180Y-71577149D02*
X137813990Y-71624768D01*
X137813990Y-71624768D02*
X137861609Y-71577149D01*
X137861609Y-71577149D02*
X137909228Y-71481911D01*
X137909228Y-71481911D02*
X137909228Y-71243816D01*
X137909228Y-71243816D02*
X137861609Y-71148578D01*
X137861609Y-71148578D02*
X137813990Y-71100959D01*
X137813990Y-71100959D02*
X137718752Y-71053340D01*
X137718752Y-71053340D02*
X137480657Y-71053340D01*
X137480657Y-71053340D02*
X137385419Y-71100959D01*
X137385419Y-71100959D02*
X137337800Y-71148578D01*
X137337800Y-71148578D02*
X137290180Y-71243816D01*
X137290180Y-71243816D02*
X137290180Y-71481911D01*
X137290180Y-71481911D02*
X137337800Y-71577149D01*
X137337800Y-71577149D02*
X137385419Y-71624768D01*
X138290180Y-70767625D02*
X137290180Y-70434292D01*
X137290180Y-70434292D02*
X138290180Y-70100959D01*
X132521366Y-69234279D02*
X132521366Y-69996184D01*
X132521366Y-72726779D02*
X132521366Y-73488684D01*
X132902319Y-73107731D02*
X132140414Y-73107731D01*
D11*
X179705000Y-106680000D02*
X179705000Y-108585000D01*
X181927500Y-106680000D02*
X179705000Y-106680000D01*
X181927500Y-108585000D02*
X181927500Y-106680000D01*
X179705000Y-108585000D02*
X181927500Y-108585000D01*
D10*
X181368458Y-107470652D02*
X181130363Y-108137319D01*
X181130363Y-108137319D02*
X180892268Y-107470652D01*
X179987506Y-108137319D02*
X180558934Y-108137319D01*
X180273220Y-108137319D02*
X180273220Y-107137319D01*
X180273220Y-107137319D02*
X180368458Y-107280176D01*
X180368458Y-107280176D02*
X180463696Y-107375414D01*
X180463696Y-107375414D02*
X180558934Y-107423033D01*
X140299887Y-108248509D02*
X140157030Y-108296128D01*
X140157030Y-108296128D02*
X140109411Y-108343747D01*
X140109411Y-108343747D02*
X140061792Y-108438985D01*
X140061792Y-108438985D02*
X140061792Y-108581842D01*
X140061792Y-108581842D02*
X140109411Y-108677080D01*
X140109411Y-108677080D02*
X140157030Y-108724700D01*
X140157030Y-108724700D02*
X140252268Y-108772319D01*
X140252268Y-108772319D02*
X140633220Y-108772319D01*
X140633220Y-108772319D02*
X140633220Y-107772319D01*
X140633220Y-107772319D02*
X140299887Y-107772319D01*
X140299887Y-107772319D02*
X140204649Y-107819938D01*
X140204649Y-107819938D02*
X140157030Y-107867557D01*
X140157030Y-107867557D02*
X140109411Y-107962795D01*
X140109411Y-107962795D02*
X140109411Y-108058033D01*
X140109411Y-108058033D02*
X140157030Y-108153271D01*
X140157030Y-108153271D02*
X140204649Y-108200890D01*
X140204649Y-108200890D02*
X140299887Y-108248509D01*
X140299887Y-108248509D02*
X140633220Y-108248509D01*
X139776077Y-107772319D02*
X139204649Y-107772319D01*
X139490363Y-108772319D02*
X139490363Y-107772319D01*
X138871315Y-108772319D02*
X138871315Y-107772319D01*
X138871315Y-107772319D02*
X138537982Y-108486604D01*
X138537982Y-108486604D02*
X138204649Y-107772319D01*
X138204649Y-107772319D02*
X138204649Y-108772319D01*
D12*
X175225564Y-67450552D02*
X175035088Y-68117219D01*
X175035088Y-68117219D02*
X174844612Y-67641028D01*
X174844612Y-67641028D02*
X174654136Y-68117219D01*
X174654136Y-68117219D02*
X174463660Y-67450552D01*
X174177945Y-67450552D02*
X173987469Y-68117219D01*
X173987469Y-68117219D02*
X173796993Y-67641028D01*
X173796993Y-67641028D02*
X173606517Y-68117219D01*
X173606517Y-68117219D02*
X173416041Y-67450552D01*
X173130326Y-67450552D02*
X172939850Y-68117219D01*
X172939850Y-68117219D02*
X172749374Y-67641028D01*
X172749374Y-67641028D02*
X172558898Y-68117219D01*
X172558898Y-68117219D02*
X172368422Y-67450552D01*
X171987469Y-68021980D02*
X171939850Y-68069600D01*
X171939850Y-68069600D02*
X171987469Y-68117219D01*
X171987469Y-68117219D02*
X172035088Y-68069600D01*
X172035088Y-68069600D02*
X171987469Y-68021980D01*
X171987469Y-68021980D02*
X171987469Y-68117219D01*
X171511279Y-68117219D02*
X171511279Y-67450552D01*
X171511279Y-67641028D02*
X171463660Y-67545790D01*
X171463660Y-67545790D02*
X171416041Y-67498171D01*
X171416041Y-67498171D02*
X171320803Y-67450552D01*
X171320803Y-67450552D02*
X171225565Y-67450552D01*
X170511279Y-68069600D02*
X170606517Y-68117219D01*
X170606517Y-68117219D02*
X170796993Y-68117219D01*
X170796993Y-68117219D02*
X170892231Y-68069600D01*
X170892231Y-68069600D02*
X170939850Y-67974361D01*
X170939850Y-67974361D02*
X170939850Y-67593409D01*
X170939850Y-67593409D02*
X170892231Y-67498171D01*
X170892231Y-67498171D02*
X170796993Y-67450552D01*
X170796993Y-67450552D02*
X170606517Y-67450552D01*
X170606517Y-67450552D02*
X170511279Y-67498171D01*
X170511279Y-67498171D02*
X170463660Y-67593409D01*
X170463660Y-67593409D02*
X170463660Y-67688647D01*
X170463660Y-67688647D02*
X170939850Y-67783885D01*
X169606517Y-68117219D02*
X169606517Y-67117219D01*
X169606517Y-68069600D02*
X169701755Y-68117219D01*
X169701755Y-68117219D02*
X169892231Y-68117219D01*
X169892231Y-68117219D02*
X169987469Y-68069600D01*
X169987469Y-68069600D02*
X170035088Y-68021980D01*
X170035088Y-68021980D02*
X170082707Y-67926742D01*
X170082707Y-67926742D02*
X170082707Y-67641028D01*
X170082707Y-67641028D02*
X170035088Y-67545790D01*
X170035088Y-67545790D02*
X169987469Y-67498171D01*
X169987469Y-67498171D02*
X169892231Y-67450552D01*
X169892231Y-67450552D02*
X169701755Y-67450552D01*
X169701755Y-67450552D02*
X169606517Y-67498171D01*
X169130326Y-67450552D02*
X169130326Y-68117219D01*
X169130326Y-67545790D02*
X169082707Y-67498171D01*
X169082707Y-67498171D02*
X168987469Y-67450552D01*
X168987469Y-67450552D02*
X168844612Y-67450552D01*
X168844612Y-67450552D02*
X168749374Y-67498171D01*
X168749374Y-67498171D02*
X168701755Y-67593409D01*
X168701755Y-67593409D02*
X168701755Y-68117219D01*
X167844612Y-68069600D02*
X167939850Y-68117219D01*
X167939850Y-68117219D02*
X168130326Y-68117219D01*
X168130326Y-68117219D02*
X168225564Y-68069600D01*
X168225564Y-68069600D02*
X168273183Y-67974361D01*
X168273183Y-67974361D02*
X168273183Y-67593409D01*
X168273183Y-67593409D02*
X168225564Y-67498171D01*
X168225564Y-67498171D02*
X168130326Y-67450552D01*
X168130326Y-67450552D02*
X167939850Y-67450552D01*
X167939850Y-67450552D02*
X167844612Y-67498171D01*
X167844612Y-67498171D02*
X167796993Y-67593409D01*
X167796993Y-67593409D02*
X167796993Y-67688647D01*
X167796993Y-67688647D02*
X168273183Y-67783885D01*
X167511278Y-67450552D02*
X167130326Y-67450552D01*
X167368421Y-67117219D02*
X167368421Y-67974361D01*
X167368421Y-67974361D02*
X167320802Y-68069600D01*
X167320802Y-68069600D02*
X167225564Y-68117219D01*
X167225564Y-68117219D02*
X167130326Y-68117219D01*
X166368421Y-68069600D02*
X166463659Y-68117219D01*
X166463659Y-68117219D02*
X166654135Y-68117219D01*
X166654135Y-68117219D02*
X166749373Y-68069600D01*
X166749373Y-68069600D02*
X166796992Y-68021980D01*
X166796992Y-68021980D02*
X166844611Y-67926742D01*
X166844611Y-67926742D02*
X166844611Y-67641028D01*
X166844611Y-67641028D02*
X166796992Y-67545790D01*
X166796992Y-67545790D02*
X166749373Y-67498171D01*
X166749373Y-67498171D02*
X166654135Y-67450552D01*
X166654135Y-67450552D02*
X166463659Y-67450552D01*
X166463659Y-67450552D02*
X166368421Y-67498171D01*
X165796992Y-68117219D02*
X165892230Y-68069600D01*
X165892230Y-68069600D02*
X165939849Y-68021980D01*
X165939849Y-68021980D02*
X165987468Y-67926742D01*
X165987468Y-67926742D02*
X165987468Y-67641028D01*
X165987468Y-67641028D02*
X165939849Y-67545790D01*
X165939849Y-67545790D02*
X165892230Y-67498171D01*
X165892230Y-67498171D02*
X165796992Y-67450552D01*
X165796992Y-67450552D02*
X165654135Y-67450552D01*
X165654135Y-67450552D02*
X165558897Y-67498171D01*
X165558897Y-67498171D02*
X165511278Y-67545790D01*
X165511278Y-67545790D02*
X165463659Y-67641028D01*
X165463659Y-67641028D02*
X165463659Y-67926742D01*
X165463659Y-67926742D02*
X165511278Y-68021980D01*
X165511278Y-68021980D02*
X165558897Y-68069600D01*
X165558897Y-68069600D02*
X165654135Y-68117219D01*
X165654135Y-68117219D02*
X165796992Y-68117219D01*
X165035087Y-67450552D02*
X165035087Y-68117219D01*
X165035087Y-67545790D02*
X164987468Y-67498171D01*
X164987468Y-67498171D02*
X164892230Y-67450552D01*
X164892230Y-67450552D02*
X164749373Y-67450552D01*
X164749373Y-67450552D02*
X164654135Y-67498171D01*
X164654135Y-67498171D02*
X164606516Y-67593409D01*
X164606516Y-67593409D02*
X164606516Y-68117219D01*
X164130325Y-68021980D02*
X164082706Y-68069600D01*
X164082706Y-68069600D02*
X164130325Y-68117219D01*
X164130325Y-68117219D02*
X164177944Y-68069600D01*
X164177944Y-68069600D02*
X164130325Y-68021980D01*
X164130325Y-68021980D02*
X164130325Y-68117219D01*
X163225564Y-68069600D02*
X163320802Y-68117219D01*
X163320802Y-68117219D02*
X163511278Y-68117219D01*
X163511278Y-68117219D02*
X163606516Y-68069600D01*
X163606516Y-68069600D02*
X163654135Y-68021980D01*
X163654135Y-68021980D02*
X163701754Y-67926742D01*
X163701754Y-67926742D02*
X163701754Y-67641028D01*
X163701754Y-67641028D02*
X163654135Y-67545790D01*
X163654135Y-67545790D02*
X163606516Y-67498171D01*
X163606516Y-67498171D02*
X163511278Y-67450552D01*
X163511278Y-67450552D02*
X163320802Y-67450552D01*
X163320802Y-67450552D02*
X163225564Y-67498171D01*
X162892230Y-67450552D02*
X162368421Y-67450552D01*
X162368421Y-67450552D02*
X162892230Y-68117219D01*
X162892230Y-68117219D02*
X162368421Y-68117219D01*
D13*
G36*
X176192463Y-65006779D02*
G01*
X176180584Y-65029002D01*
X176152169Y-65050209D01*
X176140598Y-65049367D01*
X176132140Y-65034079D01*
X176168835Y-64996789D01*
X176176672Y-64990395D01*
X176199247Y-64978215D01*
X176192463Y-65006779D01*
G37*
G36*
X178973625Y-64309590D02*
G01*
X179192021Y-64311402D01*
X179365245Y-64315002D01*
X179491368Y-64320319D01*
X179568458Y-64327286D01*
X179594583Y-64335834D01*
X179588567Y-64340115D01*
X179537822Y-64347915D01*
X179437037Y-64354101D01*
X179288143Y-64358606D01*
X179093070Y-64361359D01*
X178853750Y-64362292D01*
X178733875Y-64362077D01*
X178515479Y-64360265D01*
X178342255Y-64356665D01*
X178216132Y-64351348D01*
X178139043Y-64344381D01*
X178112917Y-64335834D01*
X178118933Y-64331552D01*
X178169678Y-64323752D01*
X178270463Y-64317566D01*
X178419358Y-64313061D01*
X178614430Y-64310308D01*
X178853750Y-64309375D01*
X178973625Y-64309590D01*
G37*
G36*
X179033155Y-63630774D02*
G01*
X179039302Y-63637085D01*
X179063159Y-63679220D01*
X179045056Y-63727361D01*
X179038747Y-63738612D01*
X179017532Y-63805487D01*
X179013450Y-63874275D01*
X179028646Y-63919826D01*
X179040446Y-63952242D01*
X179050514Y-64018932D01*
X179056319Y-64097928D01*
X179056362Y-64168136D01*
X179049146Y-64208463D01*
X179028800Y-64221486D01*
X178976931Y-64224899D01*
X178970056Y-64223764D01*
X178937598Y-64207897D01*
X178920351Y-64167102D01*
X178911681Y-64087403D01*
X178910537Y-64044197D01*
X178916638Y-63971198D01*
X178931525Y-63929976D01*
X178933057Y-63928356D01*
X178952332Y-63885030D01*
X178958902Y-63826792D01*
X178952567Y-63775685D01*
X178933125Y-63753750D01*
X178918273Y-63748139D01*
X178907125Y-63712847D01*
X178917701Y-63663168D01*
X178947682Y-63620356D01*
X178955007Y-63614532D01*
X178992182Y-63601719D01*
X179033155Y-63630774D01*
G37*
G36*
X171471875Y-65195729D02*
G01*
X171472923Y-65284634D01*
X171477048Y-65382286D01*
X171483573Y-65448882D01*
X171491719Y-65473496D01*
X171492284Y-65473404D01*
X171514576Y-65449621D01*
X171557885Y-65389784D01*
X171616209Y-65302562D01*
X171683542Y-65196620D01*
X171855521Y-64919790D01*
X172020886Y-64918853D01*
X172186250Y-64917917D01*
X172186250Y-65447084D01*
X172186250Y-65976250D01*
X172067188Y-65976250D01*
X171948125Y-65976250D01*
X171948125Y-65626622D01*
X171948283Y-65511582D01*
X171946772Y-65407746D01*
X171939745Y-65344889D01*
X171923330Y-65323585D01*
X171893651Y-65344408D01*
X171846835Y-65407930D01*
X171779008Y-65514724D01*
X171686295Y-65665365D01*
X171494736Y-65976250D01*
X171364243Y-65976250D01*
X171233750Y-65976250D01*
X171233750Y-65447084D01*
X171233750Y-64917917D01*
X171352813Y-64917917D01*
X171471875Y-64917917D01*
X171471875Y-65195729D01*
G37*
G36*
X179296529Y-63100398D02*
G01*
X179313500Y-63119158D01*
X179325648Y-63156632D01*
X179304237Y-63210056D01*
X179298180Y-63223416D01*
X179287115Y-63267746D01*
X179280607Y-63335566D01*
X179278410Y-63434203D01*
X179280279Y-63570983D01*
X179285965Y-63753233D01*
X179303235Y-64230000D01*
X179237242Y-64230000D01*
X179235055Y-64229997D01*
X179199393Y-64226184D01*
X179180315Y-64206738D01*
X179172656Y-64159235D01*
X179171250Y-64071250D01*
X179174061Y-63999557D01*
X179183615Y-63936600D01*
X179197708Y-63912500D01*
X179204703Y-63903137D01*
X179213869Y-63852439D01*
X179220166Y-63768327D01*
X179223594Y-63662870D01*
X179224154Y-63548137D01*
X179221845Y-63436197D01*
X179216668Y-63339117D01*
X179208623Y-63268966D01*
X179197708Y-63237813D01*
X179173835Y-63199578D01*
X179178620Y-63141999D01*
X179212266Y-63091190D01*
X179218279Y-63086363D01*
X179255983Y-63072210D01*
X179296529Y-63100398D01*
G37*
G36*
X166830552Y-65165638D02*
G01*
X166940886Y-65208669D01*
X166987641Y-65235119D01*
X167018878Y-65242767D01*
X167026875Y-65221799D01*
X167035059Y-65201700D01*
X167075723Y-65186826D01*
X167159167Y-65182500D01*
X167291458Y-65182500D01*
X167291458Y-65579375D01*
X167291458Y-65976250D01*
X167159167Y-65976250D01*
X167026875Y-65976250D01*
X167026875Y-65699369D01*
X167026293Y-65616714D01*
X167020569Y-65504505D01*
X167005155Y-65431963D01*
X166975729Y-65390624D01*
X166927973Y-65372027D01*
X166857566Y-65367709D01*
X166809067Y-65376520D01*
X166773356Y-65409312D01*
X166750878Y-65473250D01*
X166739187Y-65575483D01*
X166735833Y-65723157D01*
X166735833Y-65976250D01*
X166603542Y-65976250D01*
X166471250Y-65976250D01*
X166471250Y-65673224D01*
X166472203Y-65590407D01*
X166478142Y-65460071D01*
X166488684Y-65359735D01*
X166502860Y-65300823D01*
X166530950Y-65255697D01*
X166611733Y-65192066D01*
X166716218Y-65161075D01*
X166830552Y-65165638D01*
G37*
G36*
X179002017Y-66405816D02*
G01*
X179034477Y-66421678D01*
X179051729Y-66462475D01*
X179060403Y-66542181D01*
X179061546Y-66585386D01*
X179055446Y-66658386D01*
X179040559Y-66699608D01*
X179038418Y-66702639D01*
X179028154Y-66746858D01*
X179020419Y-66829444D01*
X179015235Y-66938995D01*
X179012626Y-67064108D01*
X179012612Y-67193383D01*
X179015216Y-67315418D01*
X179020461Y-67418811D01*
X179028367Y-67492160D01*
X179038958Y-67524063D01*
X179040003Y-67524732D01*
X179062859Y-67564969D01*
X179059790Y-67617401D01*
X179032344Y-67652061D01*
X178983226Y-67663633D01*
X178928784Y-67647828D01*
X178907548Y-67601079D01*
X178928949Y-67534146D01*
X178930153Y-67531915D01*
X178940333Y-67485820D01*
X178948580Y-67401931D01*
X178954746Y-67291576D01*
X178958681Y-67166082D01*
X178960240Y-67036776D01*
X178959273Y-66914986D01*
X178955632Y-66812038D01*
X178949171Y-66739261D01*
X178939740Y-66707981D01*
X178932286Y-66689082D01*
X178927286Y-66629621D01*
X178929047Y-66546161D01*
X178934029Y-66479789D01*
X178943958Y-66426235D01*
X178962504Y-66405142D01*
X178995193Y-66404690D01*
X179002017Y-66405816D01*
G37*
G36*
X168335353Y-65579161D02*
G01*
X168335169Y-65593787D01*
X168310682Y-65746556D01*
X168245014Y-65866122D01*
X168138125Y-65952563D01*
X168093720Y-65971760D01*
X167979354Y-65994894D01*
X167852632Y-65995740D01*
X167734013Y-65975079D01*
X167643951Y-65933692D01*
X167608579Y-65905920D01*
X167524480Y-65816814D01*
X167480527Y-65715798D01*
X167471837Y-65626382D01*
X167741729Y-65626382D01*
X167757257Y-65715116D01*
X167789636Y-65773712D01*
X167863113Y-65811336D01*
X167945922Y-65810092D01*
X168014962Y-65769115D01*
X168041843Y-65718345D01*
X168058668Y-65630314D01*
X168058869Y-65531895D01*
X168042686Y-65443374D01*
X168010365Y-65385038D01*
X168000454Y-65376753D01*
X167923590Y-65344168D01*
X167844436Y-65352362D01*
X167782438Y-65400054D01*
X167762777Y-65439119D01*
X167743439Y-65527665D01*
X167741729Y-65626382D01*
X167471837Y-65626382D01*
X167467847Y-65585321D01*
X167479054Y-65466431D01*
X167529395Y-65333616D01*
X167618348Y-65236289D01*
X167743894Y-65176435D01*
X167904015Y-65156042D01*
X168019758Y-65166281D01*
X168154797Y-65214801D01*
X168253886Y-65301236D01*
X168314810Y-65423414D01*
X168329119Y-65531895D01*
X168335353Y-65579161D01*
G37*
G36*
X175334792Y-65447084D02*
G01*
X175334792Y-65976250D01*
X175189271Y-65976250D01*
X175043750Y-65976250D01*
X175043750Y-65791042D01*
X175043646Y-65746600D01*
X175041185Y-65667742D01*
X175032413Y-65625672D01*
X175013373Y-65608874D01*
X174980109Y-65605834D01*
X174958577Y-65608952D01*
X174912937Y-65635130D01*
X174855589Y-65693563D01*
X174779167Y-65791042D01*
X174641866Y-65976250D01*
X174470955Y-65976250D01*
X174300045Y-65976250D01*
X174471110Y-65757176D01*
X174642176Y-65538101D01*
X174553226Y-65453465D01*
X174524605Y-65423666D01*
X174458253Y-65314932D01*
X174441922Y-65206060D01*
X174728171Y-65206060D01*
X174729087Y-65268619D01*
X174779167Y-65341250D01*
X174830768Y-65375458D01*
X174937917Y-65394167D01*
X175043750Y-65394167D01*
X175043750Y-65261875D01*
X175043750Y-65129584D01*
X174916750Y-65129584D01*
X174859624Y-65133013D01*
X174772867Y-65159036D01*
X174728171Y-65206060D01*
X174441922Y-65206060D01*
X174441064Y-65200343D01*
X174474574Y-65087059D01*
X174496785Y-65050327D01*
X174547045Y-64995448D01*
X174615329Y-64957471D01*
X174710271Y-64933694D01*
X174840509Y-64921410D01*
X175014676Y-64917917D01*
X175334792Y-64917917D01*
X175334792Y-65261875D01*
X175334792Y-65447084D01*
G37*
G36*
X178467440Y-66399584D02*
G01*
X178471990Y-66399594D01*
X178508195Y-66403474D01*
X178527378Y-66422927D01*
X178534931Y-66470398D01*
X178536250Y-66558334D01*
X178533440Y-66630026D01*
X178523885Y-66692984D01*
X178509792Y-66717084D01*
X178497331Y-66736052D01*
X178487185Y-66795807D01*
X178483333Y-66883443D01*
X178483077Y-66934668D01*
X178477957Y-67005845D01*
X178459776Y-67058072D01*
X178420237Y-67109955D01*
X178351042Y-67180104D01*
X178218750Y-67310407D01*
X178218750Y-67754578D01*
X178218927Y-67817301D01*
X178221470Y-67978344D01*
X178226852Y-68098196D01*
X178234843Y-68172963D01*
X178245208Y-68198750D01*
X178254810Y-68201133D01*
X178270306Y-68232110D01*
X178265027Y-68281206D01*
X178239917Y-68325750D01*
X178222438Y-68341207D01*
X178192292Y-68357500D01*
X178180520Y-68353457D01*
X178144667Y-68325750D01*
X178134445Y-68313245D01*
X178115638Y-68264751D01*
X178116966Y-68219029D01*
X178139375Y-68198750D01*
X178143111Y-68195786D01*
X178152704Y-68153095D01*
X178159844Y-68062734D01*
X178164297Y-67928597D01*
X178165833Y-67754578D01*
X178165833Y-67310407D01*
X178300334Y-67179110D01*
X178434834Y-67047813D01*
X178416732Y-66723698D01*
X178398630Y-66399583D01*
X178467440Y-66399584D01*
G37*
G36*
X179592857Y-67078243D02*
G01*
X179562833Y-67135125D01*
X179536261Y-67155767D01*
X179481894Y-67161341D01*
X179436817Y-67115796D01*
X179432865Y-67102664D01*
X179453466Y-67102664D01*
X179463596Y-67119146D01*
X179505640Y-67140417D01*
X179512661Y-67139928D01*
X179550151Y-67115077D01*
X179561924Y-67071031D01*
X179539795Y-67033427D01*
X179493059Y-67027479D01*
X179457175Y-67055971D01*
X179453466Y-67102664D01*
X179432865Y-67102664D01*
X179423741Y-67072343D01*
X179449115Y-67025082D01*
X179460871Y-67007028D01*
X179478112Y-66948458D01*
X179487609Y-66873000D01*
X179488628Y-66797832D01*
X179480434Y-66740134D01*
X179462292Y-66717084D01*
X179450343Y-66700221D01*
X179439850Y-66642893D01*
X179435833Y-66558334D01*
X179435835Y-66552769D01*
X179437426Y-66467112D01*
X179445528Y-66421312D01*
X179465320Y-66402945D01*
X179501979Y-66399584D01*
X179504298Y-66399587D01*
X179539988Y-66403405D01*
X179559071Y-66422851D01*
X179566725Y-66470352D01*
X179568125Y-66558334D01*
X179565315Y-66630026D01*
X179555760Y-66692984D01*
X179541667Y-66717084D01*
X179532487Y-66721522D01*
X179518487Y-66761058D01*
X179514531Y-66827151D01*
X179519815Y-66902135D01*
X179533538Y-66968348D01*
X179554896Y-67008125D01*
X179570208Y-67022648D01*
X179589919Y-67071031D01*
X179592857Y-67078243D01*
G37*
G36*
X177735405Y-62597608D02*
G01*
X177757354Y-62623036D01*
X177761349Y-62655666D01*
X177733354Y-62706128D01*
X177726134Y-62718643D01*
X177699769Y-62800169D01*
X177689583Y-62900034D01*
X177689698Y-62923822D01*
X177692818Y-62970107D01*
X177704612Y-63010955D01*
X177730862Y-63054903D01*
X177777350Y-63110490D01*
X177849857Y-63186253D01*
X177954167Y-63290729D01*
X178218750Y-63554320D01*
X178218750Y-63733410D01*
X178222102Y-63823059D01*
X178231520Y-63888105D01*
X178245208Y-63912500D01*
X178257157Y-63929363D01*
X178267650Y-63986691D01*
X178271667Y-64071250D01*
X178271665Y-64076814D01*
X178270075Y-64162472D01*
X178261972Y-64208271D01*
X178242180Y-64226639D01*
X178205521Y-64230000D01*
X178204338Y-64229999D01*
X178168037Y-64226364D01*
X178148611Y-64207277D01*
X178140809Y-64160255D01*
X178139375Y-64072812D01*
X178142076Y-64002166D01*
X178151677Y-63932579D01*
X178165833Y-63899271D01*
X178176901Y-63878496D01*
X178187996Y-63816770D01*
X178192292Y-63731849D01*
X178192292Y-63580778D01*
X177927708Y-63317188D01*
X177663125Y-63053597D01*
X177663125Y-62897268D01*
X177660361Y-62816906D01*
X177646686Y-62746827D01*
X177619139Y-62708774D01*
X177590850Y-62663470D01*
X177602711Y-62610883D01*
X177651348Y-62572136D01*
X177684989Y-62570754D01*
X177735405Y-62597608D01*
G37*
G36*
X173276248Y-65680572D02*
G01*
X173242699Y-65803834D01*
X173185167Y-65904914D01*
X173106148Y-65970206D01*
X173047889Y-65990518D01*
X172925987Y-65996702D01*
X172808550Y-65961270D01*
X172748491Y-65938135D01*
X172720356Y-65948204D01*
X172709295Y-65957786D01*
X172657901Y-65971047D01*
X172580920Y-65976250D01*
X172450833Y-65976250D01*
X172450833Y-65566146D01*
X172728646Y-65566146D01*
X172728646Y-65777813D01*
X172839393Y-65785865D01*
X172921367Y-65781683D01*
X172972636Y-65749453D01*
X172999002Y-65681412D01*
X173006458Y-65569806D01*
X173002819Y-65502253D01*
X172982252Y-65442831D01*
X172935144Y-65394828D01*
X172868446Y-65358188D01*
X172796238Y-65346606D01*
X172768373Y-65351117D01*
X172745816Y-65364732D01*
X172733976Y-65397635D01*
X172729403Y-65461037D01*
X172728646Y-65566146D01*
X172450833Y-65566146D01*
X172450833Y-65420625D01*
X172450833Y-64865000D01*
X172583125Y-64865000D01*
X172715417Y-64865000D01*
X172715417Y-65037910D01*
X172715437Y-65058277D01*
X172717089Y-65141655D01*
X172723860Y-65183750D01*
X172739208Y-65194397D01*
X172766594Y-65183431D01*
X172808503Y-65166252D01*
X172919540Y-65156090D01*
X173035739Y-65184274D01*
X173141861Y-65245727D01*
X173222669Y-65335373D01*
X173261405Y-65421920D01*
X173283315Y-65548732D01*
X173282185Y-65569806D01*
X173276248Y-65680572D01*
G37*
G36*
X169990208Y-65063438D02*
G01*
X169990251Y-65076019D01*
X169994674Y-65144257D01*
X170010775Y-65175210D01*
X170044802Y-65182500D01*
X170070617Y-65185288D01*
X170091322Y-65208693D01*
X170091104Y-65268490D01*
X170075883Y-65329873D01*
X170043125Y-65354479D01*
X170039875Y-65354675D01*
X170021257Y-65368465D01*
X170007934Y-65409988D01*
X169998164Y-65487638D01*
X169990208Y-65609810D01*
X169982352Y-65718313D01*
X169963679Y-65835551D01*
X169933125Y-65913672D01*
X169887116Y-65960636D01*
X169822081Y-65984398D01*
X169758026Y-65993796D01*
X169641940Y-65997939D01*
X169547031Y-65986032D01*
X169528069Y-65979531D01*
X169496023Y-65947365D01*
X169487500Y-65881222D01*
X169487502Y-65878390D01*
X169491513Y-65820505D01*
X169513087Y-65801592D01*
X169566810Y-65808227D01*
X169604389Y-65813774D01*
X169664014Y-65805993D01*
X169701169Y-65766333D01*
X169720243Y-65688058D01*
X169725625Y-65564428D01*
X169725625Y-65370751D01*
X169613177Y-65362615D01*
X169584169Y-65360286D01*
X169527260Y-65349402D01*
X169501990Y-65322940D01*
X169492438Y-65268490D01*
X169489446Y-65228965D01*
X169497200Y-65196364D01*
X169531242Y-65184269D01*
X169604886Y-65182500D01*
X169725625Y-65182500D01*
X169725625Y-65063438D01*
X169725625Y-64944375D01*
X169857917Y-64944375D01*
X169990208Y-64944375D01*
X169990208Y-65063438D01*
G37*
G36*
X178536039Y-67919994D02*
G01*
X178518611Y-67969445D01*
X178478503Y-67986798D01*
X178422610Y-67978240D01*
X178385723Y-67943891D01*
X178381798Y-67910128D01*
X178382062Y-67909270D01*
X178403958Y-67909270D01*
X178405118Y-67922049D01*
X178429546Y-67955500D01*
X178468995Y-67954924D01*
X178501248Y-67918267D01*
X178497550Y-67875194D01*
X178465518Y-67843978D01*
X178425066Y-67844870D01*
X178413543Y-67860376D01*
X178403958Y-67909270D01*
X178382062Y-67909270D01*
X178399783Y-67851646D01*
X178413450Y-67812136D01*
X178425698Y-67732061D01*
X178430417Y-67635875D01*
X178430733Y-67579734D01*
X178436193Y-67510635D01*
X178454974Y-67459430D01*
X178495332Y-67407908D01*
X178565522Y-67337860D01*
X178700627Y-67206563D01*
X178683428Y-66801081D01*
X178666229Y-66395600D01*
X178726917Y-66404206D01*
X178751979Y-66409967D01*
X178776090Y-66430816D01*
X178788722Y-66478055D01*
X178795539Y-66564948D01*
X178796964Y-66623332D01*
X178791083Y-66692305D01*
X178775696Y-66717084D01*
X178772087Y-66718467D01*
X178759056Y-66755355D01*
X178750801Y-66838530D01*
X178747917Y-66962727D01*
X178747917Y-67208370D01*
X178602396Y-67352084D01*
X178548681Y-67405771D01*
X178496588Y-67464330D01*
X178469224Y-67513128D01*
X178458637Y-67568204D01*
X178456875Y-67645596D01*
X178457236Y-67673573D01*
X178468689Y-67774950D01*
X178496563Y-67828334D01*
X178521468Y-67860020D01*
X178535619Y-67918267D01*
X178536039Y-67919994D01*
G37*
G36*
X171000268Y-65421119D02*
G01*
X171022083Y-65571373D01*
X171010669Y-65704726D01*
X170967298Y-65819764D01*
X170886843Y-65903972D01*
X170764365Y-65964891D01*
X170671039Y-65989081D01*
X170499090Y-65999338D01*
X170319425Y-65973109D01*
X170272556Y-65960666D01*
X170223985Y-65939226D01*
X170205076Y-65904512D01*
X170201875Y-65840817D01*
X170203783Y-65796696D01*
X170220693Y-65749031D01*
X170261562Y-65743971D01*
X170334167Y-65777813D01*
X170378383Y-65797483D01*
X170487432Y-65816072D01*
X170598296Y-65804135D01*
X170687786Y-65762663D01*
X170727074Y-65729494D01*
X170759595Y-65689048D01*
X170753265Y-65661150D01*
X170704613Y-65643755D01*
X170610168Y-65634817D01*
X170466458Y-65632292D01*
X170175417Y-65632292D01*
X170176910Y-65546302D01*
X170182757Y-65470971D01*
X170191511Y-65442552D01*
X170440000Y-65442552D01*
X170446924Y-65453817D01*
X170498615Y-65468531D01*
X170598750Y-65473542D01*
X170603268Y-65473534D01*
X170702975Y-65466868D01*
X170752779Y-65446605D01*
X170754289Y-65411068D01*
X170709115Y-65358580D01*
X170669654Y-65333449D01*
X170593948Y-65320072D01*
X170519429Y-65337231D01*
X170462609Y-65379775D01*
X170440000Y-65442552D01*
X170191511Y-65442552D01*
X170224321Y-65336033D01*
X170303927Y-65237302D01*
X170419657Y-65176682D01*
X170569590Y-65156083D01*
X170695739Y-65167488D01*
X170834257Y-65216572D01*
X170936713Y-65301984D01*
X170994906Y-65411068D01*
X171000268Y-65421119D01*
G37*
G36*
X177836429Y-67325625D02*
G01*
X177541350Y-67325625D01*
X177504972Y-67325706D01*
X177377844Y-67328180D01*
X177292723Y-67334897D01*
X177240817Y-67346920D01*
X177213333Y-67365313D01*
X177187431Y-67391532D01*
X177146434Y-67400570D01*
X177096213Y-67363475D01*
X177070481Y-67324161D01*
X177074933Y-67303610D01*
X177096663Y-67303610D01*
X177114859Y-67348859D01*
X177128191Y-67360904D01*
X177172506Y-67375950D01*
X177203279Y-67340121D01*
X177208748Y-67317529D01*
X177194737Y-67267313D01*
X177148457Y-67246250D01*
X177113306Y-67261260D01*
X177096663Y-67303610D01*
X177074933Y-67303610D01*
X177082025Y-67270871D01*
X177100699Y-67244181D01*
X177150964Y-67221264D01*
X177205981Y-67249481D01*
X177215611Y-67255303D01*
X177276394Y-67267573D01*
X177384330Y-67274134D01*
X177535387Y-67274679D01*
X177835104Y-67270188D01*
X178001611Y-67106084D01*
X178168117Y-66941979D01*
X178150136Y-66670781D01*
X178132154Y-66399584D01*
X178201910Y-66399584D01*
X178207236Y-66399597D01*
X178243631Y-66403493D01*
X178262854Y-66422947D01*
X178270376Y-66470410D01*
X178271667Y-66558334D01*
X178268856Y-66630026D01*
X178259302Y-66692984D01*
X178245208Y-66717084D01*
X178238332Y-66720938D01*
X178224324Y-66760455D01*
X178218750Y-66828909D01*
X178218747Y-66831608D01*
X178215584Y-66884864D01*
X178201800Y-66930645D01*
X178170482Y-66979955D01*
X178114716Y-67043799D01*
X178027589Y-67133180D01*
X177844471Y-67317529D01*
X177836429Y-67325625D01*
G37*
G36*
X174230736Y-65434799D02*
G01*
X174250000Y-65593068D01*
X174242904Y-65688910D01*
X174201289Y-65810200D01*
X174119039Y-65900333D01*
X173992282Y-65964891D01*
X173973000Y-65971256D01*
X173831525Y-65996893D01*
X173675329Y-65997306D01*
X173532080Y-65972062D01*
X173513864Y-65966489D01*
X173457256Y-65942382D01*
X173434183Y-65906545D01*
X173429792Y-65839770D01*
X173431174Y-65774628D01*
X173443701Y-65745579D01*
X173480060Y-65748768D01*
X173552935Y-65777813D01*
X173567655Y-65783702D01*
X173698103Y-65814469D01*
X173818839Y-65807259D01*
X173915703Y-65762663D01*
X173954990Y-65729494D01*
X173987511Y-65689048D01*
X173981181Y-65661150D01*
X173932530Y-65643755D01*
X173838085Y-65634817D01*
X173694375Y-65632292D01*
X173403333Y-65632292D01*
X173403333Y-65538838D01*
X173417568Y-65442552D01*
X173667917Y-65442552D01*
X173674841Y-65453817D01*
X173726532Y-65468531D01*
X173826667Y-65473542D01*
X173831184Y-65473534D01*
X173930892Y-65466868D01*
X173980696Y-65446605D01*
X173982206Y-65411068D01*
X173937031Y-65358580D01*
X173897571Y-65333449D01*
X173821865Y-65320072D01*
X173747346Y-65337231D01*
X173690526Y-65379775D01*
X173667917Y-65442552D01*
X173417568Y-65442552D01*
X173422365Y-65410102D01*
X173479293Y-65292629D01*
X173567106Y-65208129D01*
X173579145Y-65200820D01*
X173643109Y-65172432D01*
X173719148Y-65160604D01*
X173827259Y-65161772D01*
X173940275Y-65175776D01*
X174076061Y-65226343D01*
X174172819Y-65312621D01*
X174219487Y-65411068D01*
X174230736Y-65434799D01*
G37*
G36*
X169058666Y-64934786D02*
G01*
X169192946Y-65012325D01*
X169294215Y-65127917D01*
X169358315Y-65277890D01*
X169381086Y-65458574D01*
X169381090Y-65459873D01*
X169360684Y-65637084D01*
X169298725Y-65781714D01*
X169195411Y-65893455D01*
X169050938Y-65972001D01*
X168988913Y-65986642D01*
X168875279Y-65993974D01*
X168748438Y-65987716D01*
X168629957Y-65969230D01*
X168541404Y-65939874D01*
X168526829Y-65932157D01*
X168479988Y-65898629D01*
X168459895Y-65853863D01*
X168455625Y-65777133D01*
X168456518Y-65742130D01*
X168463611Y-65682700D01*
X168475469Y-65659576D01*
X168486596Y-65662951D01*
X168534404Y-65686720D01*
X168601146Y-65725586D01*
X168666199Y-65760324D01*
X168788284Y-65792000D01*
X168899317Y-65772281D01*
X169000667Y-65701083D01*
X169043514Y-65655339D01*
X169074627Y-65605317D01*
X169087861Y-65543810D01*
X169090625Y-65450147D01*
X169089821Y-65394345D01*
X169081265Y-65316731D01*
X169057981Y-65259867D01*
X169013421Y-65202761D01*
X169000787Y-65188876D01*
X168947741Y-65141987D01*
X168890134Y-65121113D01*
X168803971Y-65116354D01*
X168785986Y-65116561D01*
X168677073Y-65131872D01*
X168591205Y-65175886D01*
X168527472Y-65218270D01*
X168482608Y-65229193D01*
X168461134Y-65196522D01*
X168455625Y-65117034D01*
X168455662Y-65106339D01*
X168461430Y-65033512D01*
X168483858Y-64991015D01*
X168532721Y-64958783D01*
X168565330Y-64944976D01*
X168653548Y-64919671D01*
X168751003Y-64902353D01*
X168895533Y-64898971D01*
X169058666Y-64934786D01*
G37*
G36*
X178259619Y-62994727D02*
G01*
X178227190Y-63040199D01*
X178218851Y-63118839D01*
X178259989Y-63210653D01*
X178351042Y-63317188D01*
X178483333Y-63447490D01*
X178483333Y-63679995D01*
X178483576Y-63714926D01*
X178487949Y-63818727D01*
X178497027Y-63887566D01*
X178509792Y-63912500D01*
X178521741Y-63929363D01*
X178532234Y-63986691D01*
X178536250Y-64071250D01*
X178536249Y-64076814D01*
X178534658Y-64162472D01*
X178526555Y-64208271D01*
X178506763Y-64226639D01*
X178470104Y-64230000D01*
X178433617Y-64226691D01*
X178413542Y-64208261D01*
X178405455Y-64162115D01*
X178403958Y-64075660D01*
X178405625Y-64007840D01*
X178411854Y-63938007D01*
X178421114Y-63904164D01*
X178423676Y-63898963D01*
X178430113Y-63852495D01*
X178433384Y-63771048D01*
X178432811Y-63668243D01*
X178427352Y-63449479D01*
X178309822Y-63329508D01*
X178285490Y-63304206D01*
X178227657Y-63234677D01*
X178199619Y-63175974D01*
X178192292Y-63111227D01*
X178191933Y-63094150D01*
X178183913Y-63036281D01*
X178168664Y-63012917D01*
X178157230Y-63010913D01*
X178131497Y-62980076D01*
X178129374Y-62940170D01*
X178145982Y-62940170D01*
X178172500Y-62970949D01*
X178220295Y-62981153D01*
X178258957Y-62959160D01*
X178264310Y-62943255D01*
X178249973Y-62901265D01*
X178237932Y-62892490D01*
X178193766Y-62887099D01*
X178155321Y-62905909D01*
X178145982Y-62940170D01*
X178129374Y-62940170D01*
X178128819Y-62929747D01*
X178152129Y-62882991D01*
X178189757Y-62857880D01*
X178237516Y-62869735D01*
X178268984Y-62893951D01*
X178290240Y-62942004D01*
X178289513Y-62943255D01*
X178259619Y-62994727D01*
G37*
G36*
X179294800Y-66420482D02*
G01*
X179302125Y-66467086D01*
X179303542Y-66554932D01*
X179300764Y-66627370D01*
X179291167Y-66697041D01*
X179277083Y-66730313D01*
X179274364Y-66733074D01*
X179262304Y-66774561D01*
X179253827Y-66851962D01*
X179250625Y-66951150D01*
X179250625Y-67155635D01*
X179382917Y-67285938D01*
X179420670Y-67323412D01*
X179474553Y-67382645D01*
X179502705Y-67432447D01*
X179513474Y-67491206D01*
X179515208Y-67577308D01*
X179518168Y-67651570D01*
X179528494Y-67726682D01*
X179543673Y-67766840D01*
X179546864Y-67770189D01*
X179548498Y-67786054D01*
X179503985Y-67782276D01*
X179498612Y-67781292D01*
X179449682Y-67782231D01*
X179435833Y-67812850D01*
X179436633Y-67822790D01*
X179461940Y-67862780D01*
X179505542Y-67875368D01*
X179543932Y-67852033D01*
X179556858Y-67836480D01*
X179567720Y-67843768D01*
X179567479Y-67849309D01*
X179549370Y-67891186D01*
X179529184Y-67900440D01*
X179476610Y-67902210D01*
X179457128Y-67896467D01*
X179421133Y-67857330D01*
X179416656Y-67801316D01*
X179447786Y-67750018D01*
X179449547Y-67748492D01*
X179478948Y-67688483D01*
X179488750Y-67579360D01*
X179488648Y-67557510D01*
X179484002Y-67489367D01*
X179466141Y-67437341D01*
X179426486Y-67384122D01*
X179356458Y-67312396D01*
X179224167Y-67182094D01*
X179224167Y-66949589D01*
X179224087Y-66928116D01*
X179220112Y-66814784D01*
X179210645Y-66742486D01*
X179196388Y-66717084D01*
X179186191Y-66708208D01*
X179176304Y-66656296D01*
X179176544Y-66564948D01*
X179180518Y-66504509D01*
X179190463Y-66444187D01*
X179209778Y-66415206D01*
X179244011Y-66404358D01*
X179276958Y-66403460D01*
X179294800Y-66420482D01*
G37*
G36*
X179818167Y-62774238D02*
G01*
X179852513Y-62829599D01*
X179852188Y-62843903D01*
X179832929Y-62821094D01*
X179804189Y-62790536D01*
X179753851Y-62776106D01*
X179712930Y-62802409D01*
X179708766Y-62811540D01*
X179716783Y-62853322D01*
X179753841Y-62884877D01*
X179801570Y-62888388D01*
X179806037Y-62886848D01*
X179831043Y-62883210D01*
X179812865Y-62908481D01*
X179799383Y-62935868D01*
X179785169Y-63008618D01*
X179779792Y-63105193D01*
X179779554Y-63151391D01*
X179774495Y-63221979D01*
X179756365Y-63274112D01*
X179716816Y-63326177D01*
X179647500Y-63396563D01*
X179515208Y-63526865D01*
X179515208Y-63719683D01*
X179515217Y-63725044D01*
X179518906Y-63821721D01*
X179528234Y-63887939D01*
X179541667Y-63912500D01*
X179553616Y-63929363D01*
X179564109Y-63986691D01*
X179568125Y-64071250D01*
X179568124Y-64076814D01*
X179566533Y-64162472D01*
X179558430Y-64208271D01*
X179538638Y-64226639D01*
X179501979Y-64230000D01*
X179499661Y-64229997D01*
X179463970Y-64226179D01*
X179444887Y-64206733D01*
X179437234Y-64159231D01*
X179435833Y-64071250D01*
X179438644Y-63999557D01*
X179448199Y-63936600D01*
X179462292Y-63912500D01*
X179464191Y-63912054D01*
X179476949Y-63881223D01*
X179485578Y-63809239D01*
X179488750Y-63706453D01*
X179488750Y-63500407D01*
X179621042Y-63370104D01*
X179645520Y-63345855D01*
X179705500Y-63281732D01*
X179737768Y-63230879D01*
X179750866Y-63175793D01*
X179753333Y-63098970D01*
X179753118Y-63082071D01*
X179739992Y-62971115D01*
X179709563Y-62891337D01*
X179684901Y-62849925D01*
X179681542Y-62815823D01*
X179710060Y-62780268D01*
X179710088Y-62780240D01*
X179764448Y-62755623D01*
X179818167Y-62774238D01*
G37*
G36*
X179043134Y-62989604D02*
G01*
X179032480Y-63015463D01*
X179018126Y-63089145D01*
X179012500Y-63178917D01*
X179012374Y-63204515D01*
X179007646Y-63272982D01*
X178989739Y-63324980D01*
X178950109Y-63377986D01*
X178880208Y-63449479D01*
X178840471Y-63488932D01*
X178787509Y-63547454D01*
X178759972Y-63597208D01*
X178749545Y-63656735D01*
X178747917Y-63744579D01*
X178750934Y-63822643D01*
X178760513Y-63892569D01*
X178774375Y-63925729D01*
X178774922Y-63926093D01*
X178789742Y-63961342D01*
X178798415Y-64028145D01*
X178800394Y-64106062D01*
X178795130Y-64174652D01*
X178782079Y-64213477D01*
X178761892Y-64222732D01*
X178709318Y-64224502D01*
X178706437Y-64224056D01*
X178673783Y-64208718D01*
X178656058Y-64167695D01*
X178647098Y-64087403D01*
X178645954Y-64044197D01*
X178652054Y-63971198D01*
X178666941Y-63929976D01*
X178679370Y-63900777D01*
X178690651Y-63831066D01*
X178695000Y-63740849D01*
X178695238Y-63694651D01*
X178700297Y-63624063D01*
X178718427Y-63571930D01*
X178757976Y-63519865D01*
X178827292Y-63449479D01*
X178851318Y-63425681D01*
X178911503Y-63361387D01*
X178943912Y-63310481D01*
X178957090Y-63255484D01*
X178959583Y-63178917D01*
X178957662Y-63127061D01*
X178946589Y-63043609D01*
X178928949Y-62989604D01*
X178928348Y-62988632D01*
X178912997Y-62933542D01*
X178933125Y-62933542D01*
X178941822Y-62967750D01*
X178986042Y-62986459D01*
X179020250Y-62977762D01*
X179038958Y-62933542D01*
X179030262Y-62899334D01*
X178986042Y-62880625D01*
X178951834Y-62889322D01*
X178933125Y-62933542D01*
X178912997Y-62933542D01*
X178910614Y-62924989D01*
X178932176Y-62874638D01*
X178986042Y-62854167D01*
X178987056Y-62854172D01*
X179040488Y-62875215D01*
X179061512Y-62925889D01*
X179059305Y-62933542D01*
X179043134Y-62989604D01*
G37*
G36*
X181293327Y-64469654D02*
G01*
X181242653Y-64490678D01*
X181178938Y-64472301D01*
X181152061Y-64461382D01*
X181077889Y-64447212D01*
X180987626Y-64441667D01*
X180961046Y-64441781D01*
X180891947Y-64446313D01*
X180840814Y-64463983D01*
X180789941Y-64503596D01*
X180721623Y-64573959D01*
X180688990Y-64608615D01*
X180631221Y-64664312D01*
X180582771Y-64693380D01*
X180525231Y-64704475D01*
X180440190Y-64706250D01*
X180369417Y-64709031D01*
X180306583Y-64718593D01*
X180282500Y-64732709D01*
X180278023Y-64744880D01*
X180242813Y-64759167D01*
X180216925Y-64772113D01*
X180203125Y-64825313D01*
X180210893Y-64868458D01*
X180242813Y-64891459D01*
X180261070Y-64894444D01*
X180282500Y-64917917D01*
X180297674Y-64925425D01*
X180361996Y-64933503D01*
X180474022Y-64939448D01*
X180630811Y-64943120D01*
X180829427Y-64944375D01*
X180942579Y-64944218D01*
X181103686Y-64942975D01*
X181222991Y-64940061D01*
X181307574Y-64934965D01*
X181364510Y-64927177D01*
X181400878Y-64916185D01*
X181423754Y-64901479D01*
X181432366Y-64894418D01*
X181486141Y-64873702D01*
X181532629Y-64884601D01*
X181552095Y-64923701D01*
X181547688Y-64941997D01*
X181528307Y-64920676D01*
X181524582Y-64915541D01*
X181483812Y-64897648D01*
X181440413Y-64913097D01*
X181420208Y-64953943D01*
X181434840Y-64990390D01*
X181477034Y-65008284D01*
X181522818Y-64989933D01*
X181542196Y-64974750D01*
X181552500Y-64989169D01*
X181552499Y-64989544D01*
X181531953Y-65024680D01*
X181484297Y-65032443D01*
X181429395Y-65009545D01*
X181412469Y-65002222D01*
X181344753Y-64990095D01*
X181239446Y-64980742D01*
X181106597Y-64974177D01*
X180956252Y-64970418D01*
X180798458Y-64969480D01*
X180643264Y-64971378D01*
X180500716Y-64976130D01*
X180380863Y-64983751D01*
X180293751Y-64994257D01*
X180249427Y-65007665D01*
X180234173Y-65021198D01*
X180204963Y-65077553D01*
X180214968Y-65131860D01*
X180262656Y-65165824D01*
X180264985Y-65166367D01*
X180314205Y-65171265D01*
X180406157Y-65175549D01*
X180531633Y-65178960D01*
X180681425Y-65181243D01*
X180846324Y-65182139D01*
X181370459Y-65182500D01*
X181510338Y-65314792D01*
X181650217Y-65447084D01*
X181870473Y-65447084D01*
X181922408Y-65446673D01*
X182028346Y-65441053D01*
X182096629Y-65427472D01*
X182138129Y-65404187D01*
X182146741Y-65397127D01*
X182200516Y-65376410D01*
X182247004Y-65387310D01*
X182266470Y-65426409D01*
X182262063Y-65444705D01*
X182242682Y-65423384D01*
X182238957Y-65418250D01*
X182198187Y-65400356D01*
X182154788Y-65415806D01*
X182134584Y-65456652D01*
X182149215Y-65493098D01*
X182191409Y-65510993D01*
X182237193Y-65492641D01*
X182256571Y-65477458D01*
X182266875Y-65491878D01*
X182266874Y-65492253D01*
X182246328Y-65527388D01*
X182198672Y-65535151D01*
X182143770Y-65512254D01*
X182097600Y-65493043D01*
X182001135Y-65479278D01*
X181855665Y-65474383D01*
X181616435Y-65473542D01*
X181499584Y-65354479D01*
X181382732Y-65235417D01*
X180870783Y-65235417D01*
X180358833Y-65235417D01*
X180366968Y-65347865D01*
X180375104Y-65460313D01*
X180755288Y-65467673D01*
X180842237Y-65469164D01*
X180970007Y-65469879D01*
X181057897Y-65467232D01*
X181114393Y-65460485D01*
X181147979Y-65448895D01*
X181167141Y-65431723D01*
X181177981Y-65419377D01*
X181230364Y-65397572D01*
X181281417Y-65415344D01*
X181309616Y-65467316D01*
X181310614Y-65480019D01*
X181291370Y-65530500D01*
X181242381Y-65549841D01*
X181178938Y-65530634D01*
X181138567Y-65518779D01*
X181044370Y-65508628D01*
X180901681Y-65502600D01*
X180712807Y-65500842D01*
X180683836Y-65500930D01*
X180510668Y-65503449D01*
X180383131Y-65510222D01*
X180294916Y-65522547D01*
X180239716Y-65541724D01*
X180211221Y-65569053D01*
X180203125Y-65605834D01*
X180212305Y-65640796D01*
X180262387Y-65679840D01*
X180358322Y-65702884D01*
X180502671Y-65710825D01*
X180523470Y-65710838D01*
X180637049Y-65706634D01*
X180709439Y-65693817D01*
X180750482Y-65670798D01*
X180778498Y-65648566D01*
X180828333Y-65644620D01*
X180875474Y-65692901D01*
X180888067Y-65734776D01*
X180859107Y-65781399D01*
X180830402Y-65806375D01*
X180798096Y-65810031D01*
X180748039Y-65781895D01*
X180715368Y-65767724D01*
X180641916Y-65751530D01*
X180550167Y-65740904D01*
X180454235Y-65736371D01*
X180368237Y-65738457D01*
X180306287Y-65747686D01*
X180282500Y-65764584D01*
X180278023Y-65776755D01*
X180242813Y-65791042D01*
X180216925Y-65803988D01*
X180203125Y-65857188D01*
X180210893Y-65900333D01*
X180242813Y-65923334D01*
X180261070Y-65926319D01*
X180282500Y-65949792D01*
X180295665Y-65958441D01*
X180355099Y-65967985D01*
X180456770Y-65974096D01*
X180594491Y-65976250D01*
X180906482Y-65976250D01*
X181023334Y-66095313D01*
X181090938Y-66160752D01*
X181143665Y-66196660D01*
X181200734Y-66211476D01*
X181282086Y-66214375D01*
X181294753Y-66214284D01*
X181402432Y-66202975D01*
X181464857Y-66173506D01*
X181492873Y-66151275D01*
X181542708Y-66147329D01*
X181589849Y-66195610D01*
X181602442Y-66237485D01*
X181573482Y-66284107D01*
X181544777Y-66309083D01*
X181512471Y-66312739D01*
X181462414Y-66284604D01*
X181453888Y-66279469D01*
X181368499Y-66251196D01*
X181254669Y-66240834D01*
X181174970Y-66238022D01*
X181117779Y-66223365D01*
X181065044Y-66187677D01*
X180996875Y-66121771D01*
X180880024Y-66002709D01*
X180581262Y-66002709D01*
X180490913Y-66003665D01*
X180379488Y-66008632D01*
X180307837Y-66017326D01*
X180282500Y-66029167D01*
X180279833Y-66039382D01*
X180248300Y-66055625D01*
X180235734Y-66061922D01*
X180207410Y-66105278D01*
X180181840Y-66176242D01*
X180141445Y-66277288D01*
X180054554Y-66380997D01*
X179932313Y-66445861D01*
X179919586Y-66449635D01*
X179829226Y-66467557D01*
X179733490Y-66476257D01*
X179621042Y-66478959D01*
X179621042Y-66333438D01*
X179621606Y-66282385D01*
X179627447Y-66221542D01*
X179643378Y-66194233D01*
X179673958Y-66187917D01*
X179722194Y-66174641D01*
X179779792Y-66135000D01*
X179782352Y-66132403D01*
X179804665Y-66103264D01*
X179819288Y-66063744D01*
X179827790Y-66003215D01*
X179831741Y-65911047D01*
X179832708Y-65776610D01*
X179832828Y-65708147D01*
X179834553Y-65596724D01*
X179839833Y-65522007D01*
X179850552Y-65472985D01*
X179868598Y-65438650D01*
X179895856Y-65407989D01*
X179959004Y-65344841D01*
X179895856Y-65285517D01*
X179884651Y-65274669D01*
X179860620Y-65244968D01*
X179845410Y-65207072D01*
X179837021Y-65149801D01*
X179833453Y-65061977D01*
X179832708Y-64932421D01*
X179832524Y-64890742D01*
X179826889Y-64740509D01*
X179811685Y-64634850D01*
X179784614Y-64567338D01*
X179743381Y-64531545D01*
X179685687Y-64521042D01*
X179654197Y-64518710D01*
X179631948Y-64502324D01*
X179622811Y-64458904D01*
X179621042Y-64375521D01*
X179621042Y-64230000D01*
X179751611Y-64230000D01*
X179907906Y-64245643D01*
X180032198Y-64296160D01*
X180120970Y-64383524D01*
X180177192Y-64509688D01*
X180188193Y-64543647D01*
X180217742Y-64603489D01*
X180246251Y-64626875D01*
X180261330Y-64629287D01*
X180282500Y-64653334D01*
X180296111Y-64664404D01*
X180349672Y-64675497D01*
X180429970Y-64679792D01*
X180481875Y-64679312D01*
X180542480Y-64672873D01*
X180590024Y-64652132D01*
X180640634Y-64608720D01*
X180710437Y-64534271D01*
X180754778Y-64486242D01*
X180811565Y-64430981D01*
X180837036Y-64415209D01*
X181182083Y-64415209D01*
X181189671Y-64445587D01*
X181225392Y-64468697D01*
X181270278Y-64450486D01*
X181286774Y-64423368D01*
X181278787Y-64381346D01*
X181235000Y-64362292D01*
X181200792Y-64370988D01*
X181182083Y-64415209D01*
X180837036Y-64415209D01*
X180858504Y-64401916D01*
X180911550Y-64390641D01*
X180986660Y-64388750D01*
X181041615Y-64386679D01*
X181125214Y-64375587D01*
X181178938Y-64358116D01*
X181179910Y-64357514D01*
X181243553Y-64339780D01*
X181293904Y-64361343D01*
X181314375Y-64415209D01*
X181314370Y-64416223D01*
X181311556Y-64423368D01*
X181293327Y-64469654D01*
G37*
G36*
X176135590Y-65473542D02*
G01*
X175968785Y-65473542D01*
X175907524Y-65474981D01*
X175811538Y-65488145D01*
X175754579Y-65516438D01*
X175709897Y-65541317D01*
X175656016Y-65537376D01*
X175617210Y-65504571D01*
X175605930Y-65454935D01*
X175615865Y-65436084D01*
X175633602Y-65436084D01*
X175634719Y-65484993D01*
X175646080Y-65505223D01*
X175678750Y-65526459D01*
X175680814Y-65526397D01*
X175713880Y-65503442D01*
X175725508Y-65457067D01*
X175708722Y-65413555D01*
X175697827Y-65405095D01*
X175659915Y-65404357D01*
X175633602Y-65436084D01*
X175615865Y-65436084D01*
X175634621Y-65400498D01*
X175655019Y-65381632D01*
X175685852Y-65372964D01*
X175726312Y-65402550D01*
X175758440Y-65423077D01*
X175832158Y-65441458D01*
X175946576Y-65447084D01*
X176117631Y-65447084D01*
X176398561Y-65182500D01*
X176679492Y-64917917D01*
X177032402Y-64917556D01*
X177125738Y-64917244D01*
X177270844Y-64914897D01*
X177373739Y-64909056D01*
X177441480Y-64898293D01*
X177481128Y-64881185D01*
X177499740Y-64856305D01*
X177504375Y-64822227D01*
X177496710Y-64781994D01*
X177464688Y-64759167D01*
X177446430Y-64756182D01*
X177425000Y-64732709D01*
X177416012Y-64726644D01*
X177360632Y-64717981D01*
X177257592Y-64711579D01*
X177110185Y-64707611D01*
X176921701Y-64706250D01*
X176418401Y-64706250D01*
X176296379Y-64818698D01*
X176237253Y-64868008D01*
X176171344Y-64910314D01*
X176127335Y-64923265D01*
X176083060Y-64927791D01*
X176058311Y-64961914D01*
X176076587Y-65011680D01*
X176090977Y-65034710D01*
X176081696Y-65050209D01*
X176077019Y-65049872D01*
X176045890Y-65024192D01*
X176035521Y-64975216D01*
X176051950Y-64927792D01*
X176071758Y-64910445D01*
X176126412Y-64891459D01*
X176152395Y-64882787D01*
X176209212Y-64844358D01*
X176274063Y-64785625D01*
X176377406Y-64679792D01*
X176894589Y-64678950D01*
X177055751Y-64678335D01*
X177208560Y-64675794D01*
X177320939Y-64669729D01*
X177399734Y-64658481D01*
X177451790Y-64640393D01*
X177483949Y-64613808D01*
X177503059Y-64577070D01*
X177515962Y-64528521D01*
X177565880Y-64404555D01*
X177656100Y-64309304D01*
X177781904Y-64250257D01*
X177939624Y-64230000D01*
X178086458Y-64230000D01*
X178086458Y-64375521D01*
X178085690Y-64435766D01*
X178079271Y-64491646D01*
X178062057Y-64515819D01*
X178029011Y-64521042D01*
X177984530Y-64529953D01*
X177923177Y-64564830D01*
X177902841Y-64589301D01*
X177888490Y-64627347D01*
X177879956Y-64687979D01*
X177875852Y-64781297D01*
X177874792Y-64917405D01*
X177874643Y-64994779D01*
X177872843Y-65103978D01*
X177867495Y-65176856D01*
X177856747Y-65224208D01*
X177838747Y-65256830D01*
X177811644Y-65285517D01*
X177748496Y-65344841D01*
X177811644Y-65407989D01*
X177825772Y-65422695D01*
X177848449Y-65453718D01*
X177862803Y-65493611D01*
X177870721Y-65553383D01*
X177874088Y-65644046D01*
X177874500Y-65721650D01*
X177874792Y-65776610D01*
X177874798Y-65791393D01*
X177875981Y-65921386D01*
X177880293Y-66010114D01*
X177889306Y-66068206D01*
X177904588Y-66106292D01*
X177927708Y-66135000D01*
X177975944Y-66169960D01*
X178033542Y-66187917D01*
X178064400Y-66195283D01*
X178086458Y-66227604D01*
X178091130Y-66238305D01*
X178110443Y-66247720D01*
X178149901Y-66254898D01*
X178214966Y-66260126D01*
X178311098Y-66263692D01*
X178443761Y-66265884D01*
X178618415Y-66266988D01*
X178840521Y-66267292D01*
X178972634Y-66267545D01*
X179191512Y-66269408D01*
X179365030Y-66273026D01*
X179491304Y-66278333D01*
X179568450Y-66285263D01*
X179594583Y-66293750D01*
X179587373Y-66298386D01*
X179534285Y-66306066D01*
X179431172Y-66312154D01*
X179279918Y-66316585D01*
X179082406Y-66319292D01*
X178840521Y-66320209D01*
X178086458Y-66320209D01*
X178086458Y-66399584D01*
X178086451Y-66403655D01*
X178080849Y-66454189D01*
X178054070Y-66474941D01*
X177990309Y-66478959D01*
X177922773Y-66475668D01*
X177772885Y-66441598D01*
X177650439Y-66374599D01*
X177562883Y-66279670D01*
X177517663Y-66161808D01*
X177515159Y-66148259D01*
X177492432Y-66080422D01*
X177462362Y-66055625D01*
X177446259Y-66053025D01*
X177425000Y-66029167D01*
X177404026Y-66010821D01*
X177350388Y-66002709D01*
X177308503Y-66009444D01*
X177245582Y-66046216D01*
X177168789Y-66121771D01*
X177076850Y-66224088D01*
X177061802Y-66240834D01*
X176872984Y-66240834D01*
X176870370Y-66240836D01*
X176774575Y-66244431D01*
X176708682Y-66253786D01*
X176684167Y-66267292D01*
X176678555Y-66282144D01*
X176643264Y-66293292D01*
X176593585Y-66282716D01*
X176550773Y-66252735D01*
X176544949Y-66245410D01*
X176536537Y-66221004D01*
X176558482Y-66221004D01*
X176585000Y-66251782D01*
X176632795Y-66261986D01*
X176671457Y-66239993D01*
X176676810Y-66224088D01*
X176662473Y-66182098D01*
X176650432Y-66173323D01*
X176606266Y-66167933D01*
X176567821Y-66186743D01*
X176558482Y-66221004D01*
X176536537Y-66221004D01*
X176532136Y-66208235D01*
X176561190Y-66167262D01*
X176567501Y-66161115D01*
X176609637Y-66137258D01*
X176657777Y-66155361D01*
X176707421Y-66171397D01*
X176792652Y-66183349D01*
X176893413Y-66187917D01*
X176947138Y-66187736D01*
X177024947Y-66183752D01*
X177075960Y-66169314D01*
X177117654Y-66137675D01*
X177167508Y-66082084D01*
X177218278Y-66028102D01*
X177277998Y-65987534D01*
X177341549Y-65976250D01*
X177345924Y-65976214D01*
X177401919Y-65968013D01*
X177425000Y-65949792D01*
X177429478Y-65937620D01*
X177464688Y-65923334D01*
X177490575Y-65910387D01*
X177504375Y-65857188D01*
X177496607Y-65814042D01*
X177464688Y-65791042D01*
X177446430Y-65788057D01*
X177425000Y-65764584D01*
X177423328Y-65761031D01*
X177386510Y-65749023D01*
X177308399Y-65741029D01*
X177198214Y-65738125D01*
X177142851Y-65738567D01*
X177036351Y-65744070D01*
X176968843Y-65757049D01*
X176930560Y-65778994D01*
X176902544Y-65801226D01*
X176852709Y-65805172D01*
X176805568Y-65756891D01*
X176792405Y-65717558D01*
X176802094Y-65700668D01*
X176824227Y-65700668D01*
X176825344Y-65749576D01*
X176836705Y-65769806D01*
X176869375Y-65791042D01*
X176871439Y-65790980D01*
X176904505Y-65768025D01*
X176916133Y-65721650D01*
X176899347Y-65678138D01*
X176888452Y-65669678D01*
X176850540Y-65668941D01*
X176824227Y-65700668D01*
X176802094Y-65700668D01*
X176818824Y-65671504D01*
X176830745Y-65661841D01*
X176880928Y-65646420D01*
X176927951Y-65656131D01*
X176948750Y-65688039D01*
X176953646Y-65692852D01*
X176997481Y-65702321D01*
X177077009Y-65708705D01*
X177180261Y-65710825D01*
X177181927Y-65710819D01*
X177329431Y-65704401D01*
X177429481Y-65685690D01*
X177486366Y-65653298D01*
X177504375Y-65605834D01*
X177503768Y-65597574D01*
X177474043Y-65550495D01*
X177411719Y-65517366D01*
X177333625Y-65501876D01*
X177256592Y-65507712D01*
X177197449Y-65538563D01*
X177173869Y-65555614D01*
X177122846Y-65559737D01*
X177081586Y-65531467D01*
X177063956Y-65483992D01*
X177083825Y-65430501D01*
X177102996Y-65411785D01*
X177158452Y-65397025D01*
X177213333Y-65433854D01*
X177241423Y-65462032D01*
X177282938Y-65474423D01*
X177309691Y-65437943D01*
X177319167Y-65354479D01*
X177319167Y-65235417D01*
X177114115Y-65235702D01*
X177038555Y-65236231D01*
X176959897Y-65241043D01*
X176905755Y-65255490D01*
X176859182Y-65284979D01*
X176803229Y-65334921D01*
X176759386Y-65372360D01*
X176693661Y-65416604D01*
X176646684Y-65433854D01*
X176617134Y-65439276D01*
X176584953Y-65466913D01*
X176583985Y-65485893D01*
X176609289Y-65512873D01*
X176651932Y-65518899D01*
X176688851Y-65497241D01*
X176689925Y-65495708D01*
X176707905Y-65474733D01*
X176703952Y-65500000D01*
X176693522Y-65521395D01*
X176650298Y-65546847D01*
X176599579Y-65540412D01*
X176565669Y-65501779D01*
X176558063Y-65464506D01*
X176573915Y-65412474D01*
X176629087Y-65394167D01*
X176661816Y-65383581D01*
X176724884Y-65345166D01*
X176796950Y-65288334D01*
X176917183Y-65182500D01*
X177159602Y-65182500D01*
X177211529Y-65182096D01*
X177347539Y-65174802D01*
X177438177Y-65157222D01*
X177488702Y-65127871D01*
X177504375Y-65085267D01*
X177499028Y-65050467D01*
X177474182Y-65018099D01*
X177422981Y-64995671D01*
X177338812Y-64981548D01*
X177215061Y-64974095D01*
X177045116Y-64971675D01*
X176678461Y-64970834D01*
X176407025Y-65222188D01*
X176153381Y-65457067D01*
X176135590Y-65473542D01*
G37*
G36*
X179547105Y-64939167D02*
G01*
X179549568Y-64944471D01*
X179625549Y-65108121D01*
X179653016Y-65248102D01*
X179660443Y-65285955D01*
X179653778Y-65465302D01*
X179653547Y-65466169D01*
X179607544Y-65638794D01*
X179523731Y-65799065D01*
X179494731Y-65832991D01*
X179404330Y-65938748D01*
X179251331Y-66050474D01*
X179066725Y-66126878D01*
X179043447Y-66132843D01*
X178879664Y-66149345D01*
X178702517Y-66130436D01*
X178532626Y-66078002D01*
X178500316Y-66062462D01*
X178378783Y-65979263D01*
X178262004Y-65866282D01*
X178231883Y-65826975D01*
X178358367Y-65826975D01*
X178376075Y-65853503D01*
X178430564Y-65900732D01*
X178472288Y-65934048D01*
X178533309Y-65972649D01*
X178560281Y-65971190D01*
X178552574Y-65930076D01*
X178509559Y-65849714D01*
X178508833Y-65848523D01*
X178470927Y-65794202D01*
X178439649Y-65778818D01*
X178398357Y-65794040D01*
X178373490Y-65808066D01*
X178358367Y-65826975D01*
X178231883Y-65826975D01*
X178183278Y-65763546D01*
X178562708Y-65763546D01*
X178569649Y-65781760D01*
X178601320Y-65833554D01*
X178649952Y-65901312D01*
X178686153Y-65945042D01*
X178712791Y-65971190D01*
X178741613Y-65999481D01*
X178782244Y-66024371D01*
X178798689Y-66025249D01*
X178816750Y-66009506D01*
X178825199Y-65962688D01*
X178827292Y-65873918D01*
X178826664Y-65857188D01*
X178933125Y-65857188D01*
X178933314Y-65873918D01*
X178934083Y-65941862D01*
X178936728Y-66005025D01*
X178940467Y-66029167D01*
X178963457Y-66020559D01*
X179014411Y-65980376D01*
X179050510Y-65942269D01*
X179193482Y-65942269D01*
X179196422Y-65971441D01*
X179232562Y-65959665D01*
X179302270Y-65907114D01*
X179341446Y-65871279D01*
X179365347Y-65832991D01*
X179353977Y-65801281D01*
X179335615Y-65781754D01*
X179301619Y-65768454D01*
X179294888Y-65773950D01*
X179267212Y-65796548D01*
X179224167Y-65870417D01*
X179223373Y-65871976D01*
X179193482Y-65942269D01*
X179050510Y-65942269D01*
X179071616Y-65919989D01*
X179120616Y-65853494D01*
X179140691Y-65820561D01*
X179163674Y-65773950D01*
X179159981Y-65746575D01*
X179130959Y-65721183D01*
X179081551Y-65697967D01*
X179007443Y-65685209D01*
X178989576Y-65685350D01*
X178957112Y-65690873D01*
X178940334Y-65713366D01*
X178934064Y-65764810D01*
X178933125Y-65857188D01*
X178826664Y-65857188D01*
X178824571Y-65801381D01*
X178815196Y-65731870D01*
X178801444Y-65698815D01*
X178770419Y-65694267D01*
X178709417Y-65702435D01*
X178641189Y-65720304D01*
X178585648Y-65742474D01*
X178562708Y-65763546D01*
X178183278Y-65763546D01*
X178164926Y-65739597D01*
X178102495Y-65615289D01*
X178069807Y-65457100D01*
X178186440Y-65457100D01*
X178199435Y-65521883D01*
X178235052Y-65625677D01*
X178251998Y-65668213D01*
X178287462Y-65722988D01*
X178329341Y-65731865D01*
X178386833Y-65699306D01*
X178393987Y-65693611D01*
X178418747Y-65661228D01*
X178425497Y-65611278D01*
X178417232Y-65526778D01*
X178402632Y-65420625D01*
X178509792Y-65420625D01*
X178509792Y-65526459D01*
X178510568Y-65578047D01*
X178519482Y-65611278D01*
X178519818Y-65612531D01*
X178548519Y-65626098D01*
X178607660Y-65623301D01*
X178708229Y-65608694D01*
X178727144Y-65605713D01*
X178785465Y-65590675D01*
X178809421Y-65562481D01*
X178814063Y-65506615D01*
X178814007Y-65500173D01*
X178807731Y-65443780D01*
X178794219Y-65420625D01*
X178779525Y-65420625D01*
X178722365Y-65420625D01*
X178642083Y-65420625D01*
X178509792Y-65420625D01*
X178402632Y-65420625D01*
X178398993Y-65394167D01*
X178933125Y-65394167D01*
X178933125Y-65485210D01*
X178933218Y-65494088D01*
X178934509Y-65506615D01*
X178939610Y-65556115D01*
X178952969Y-65587672D01*
X178964577Y-65591913D01*
X179018472Y-65604011D01*
X179095597Y-65616879D01*
X179218382Y-65634667D01*
X179218726Y-65631056D01*
X179311611Y-65631056D01*
X179319777Y-65675166D01*
X179346699Y-65704247D01*
X179379271Y-65723416D01*
X179429011Y-65738125D01*
X179438181Y-65735784D01*
X179472552Y-65700037D01*
X179507786Y-65633847D01*
X179536307Y-65553581D01*
X179550538Y-65475606D01*
X179551057Y-65466169D01*
X179546151Y-65427046D01*
X179517142Y-65410691D01*
X179449676Y-65407396D01*
X179344456Y-65407396D01*
X179339434Y-65437352D01*
X179322412Y-65538882D01*
X179319745Y-65555188D01*
X179311611Y-65631056D01*
X179218726Y-65631056D01*
X179228719Y-65526271D01*
X179230761Y-65501285D01*
X179232328Y-65437352D01*
X179227202Y-65406021D01*
X179211705Y-65401458D01*
X179155246Y-65396211D01*
X179074236Y-65394167D01*
X178933125Y-65394167D01*
X178398993Y-65394167D01*
X178398610Y-65391386D01*
X178288837Y-65399391D01*
X178237696Y-65405110D01*
X178198412Y-65421464D01*
X178186440Y-65457100D01*
X178069807Y-65457100D01*
X178063037Y-65424337D01*
X178070621Y-65249181D01*
X178192292Y-65249181D01*
X178192294Y-65250705D01*
X178198806Y-65292721D01*
X178227971Y-65310877D01*
X178294818Y-65314792D01*
X178301965Y-65314776D01*
X178366401Y-65309513D01*
X178397671Y-65286149D01*
X178413880Y-65232110D01*
X178416594Y-65218156D01*
X178420946Y-65180879D01*
X178509792Y-65180879D01*
X178509792Y-65288334D01*
X178668542Y-65288334D01*
X178827292Y-65288334D01*
X178827292Y-65223749D01*
X178933125Y-65223749D01*
X178933125Y-65314792D01*
X179077085Y-65314792D01*
X179134993Y-65312971D01*
X179202773Y-65304865D01*
X179234842Y-65292466D01*
X179236692Y-65288140D01*
X179239772Y-65241934D01*
X179232767Y-65172328D01*
X179217780Y-65079974D01*
X179320440Y-65079974D01*
X179326707Y-65167156D01*
X179338560Y-65241934D01*
X179338890Y-65244019D01*
X179360285Y-65288351D01*
X179403439Y-65301695D01*
X179482136Y-65295428D01*
X179502760Y-65292562D01*
X179546754Y-65278520D01*
X179563700Y-65248102D01*
X179555975Y-65190426D01*
X179525951Y-65094609D01*
X179509345Y-65051491D01*
X179466292Y-64986194D01*
X179414953Y-64970977D01*
X179351608Y-65003906D01*
X179331129Y-65028380D01*
X179320440Y-65079974D01*
X179217780Y-65079974D01*
X179216894Y-65074515D01*
X179094853Y-65092191D01*
X179069544Y-65095890D01*
X178991579Y-65110132D01*
X178950980Y-65129579D01*
X178935558Y-65164147D01*
X178933763Y-65208128D01*
X178933125Y-65223749D01*
X178827292Y-65223749D01*
X178827292Y-65208128D01*
X178826831Y-65183392D01*
X178818676Y-65144681D01*
X178791533Y-65120844D01*
X178734199Y-65104995D01*
X178635469Y-65090250D01*
X178509792Y-65073424D01*
X178509792Y-65108970D01*
X178509792Y-65180879D01*
X178420946Y-65180879D01*
X178429340Y-65108970D01*
X178417285Y-65038335D01*
X178379240Y-64998223D01*
X178344791Y-64982321D01*
X178302737Y-64970834D01*
X178284049Y-64984339D01*
X178254043Y-65035008D01*
X178224242Y-65107393D01*
X178201406Y-65184462D01*
X178192292Y-65249181D01*
X178070621Y-65249181D01*
X178071415Y-65230854D01*
X178125139Y-65046186D01*
X178179347Y-64951111D01*
X178591903Y-64951111D01*
X178622240Y-64982683D01*
X178697602Y-65002450D01*
X178771438Y-65012744D01*
X178810135Y-65005630D01*
X178817489Y-64983287D01*
X178824559Y-64920177D01*
X178827171Y-64837932D01*
X178933125Y-64837932D01*
X178933133Y-64844555D01*
X178936666Y-64947592D01*
X178947340Y-65004090D01*
X178966198Y-65019786D01*
X178992346Y-65016533D01*
X179085735Y-65001138D01*
X179138549Y-64983182D01*
X179160947Y-64959520D01*
X179163002Y-64944471D01*
X179146474Y-64886558D01*
X179106615Y-64814491D01*
X179067661Y-64763306D01*
X179190963Y-64763306D01*
X179216266Y-64825313D01*
X179263232Y-64892101D01*
X179316553Y-64918872D01*
X179365648Y-64899908D01*
X179365380Y-64880312D01*
X179338066Y-64837682D01*
X179293178Y-64789118D01*
X179244650Y-64749249D01*
X179206416Y-64732709D01*
X179193217Y-64736215D01*
X179190963Y-64763306D01*
X179067661Y-64763306D01*
X179053684Y-64744941D01*
X178997937Y-64694580D01*
X178933125Y-64652114D01*
X178933125Y-64834132D01*
X178933125Y-64837932D01*
X178827171Y-64837932D01*
X178827292Y-64834132D01*
X178825893Y-64779190D01*
X178813259Y-64704846D01*
X178785082Y-64680626D01*
X178738455Y-64705497D01*
X178706631Y-64739633D01*
X178670468Y-64778424D01*
X178643916Y-64812938D01*
X178599705Y-64892084D01*
X178591903Y-64951111D01*
X178179347Y-64951111D01*
X178211984Y-64893870D01*
X178365762Y-64893870D01*
X178376388Y-64906501D01*
X178422918Y-64918785D01*
X178477081Y-64894669D01*
X178522342Y-64839856D01*
X178527995Y-64828858D01*
X178556159Y-64767924D01*
X178559029Y-64739633D01*
X178538280Y-64732709D01*
X178512976Y-64741126D01*
X178463920Y-64774667D01*
X178412911Y-64820760D01*
X178375131Y-64865222D01*
X178365762Y-64893870D01*
X178211984Y-64893870D01*
X178220671Y-64878634D01*
X178354477Y-64736497D01*
X178523021Y-64628076D01*
X178619154Y-64589945D01*
X178722101Y-64569543D01*
X178853750Y-64562995D01*
X178928747Y-64564816D01*
X179114292Y-64596280D01*
X179276797Y-64670127D01*
X179427681Y-64790891D01*
X179515485Y-64899908D01*
X179547105Y-64939167D01*
G37*
%LPC*%
D14*
X136400000Y-78000000D02*
G75*
G02*
X133600000Y-78000000I-1400000J0D01*
G01*
X133600000Y-78000000D02*
G75*
G02*
X136400000Y-78000000I1400000J0D01*
G01*
X149400000Y-93000000D02*
G75*
G02*
X146600000Y-93000000I-1400000J0D01*
G01*
X146600000Y-93000000D02*
G75*
G02*
X149400000Y-93000000I1400000J0D01*
G01*
X175400000Y-93000000D02*
G75*
G02*
X172600000Y-93000000I-1400000J0D01*
G01*
X172600000Y-93000000D02*
G75*
G02*
X175400000Y-93000000I1400000J0D01*
G01*
X182400000Y-71000000D02*
G75*
G02*
X179600000Y-71000000I-1400000J0D01*
G01*
X179600000Y-71000000D02*
G75*
G02*
X182400000Y-71000000I1400000J0D01*
G01*
D15*
X175700000Y-62500000D03*
D16*
X173160000Y-62500000D03*
X170620000Y-62500000D03*
X168080000Y-62500000D03*
X165540000Y-62500000D03*
X163000000Y-62500000D03*
X160460000Y-62500000D03*
X157920000Y-62500000D03*
X157920000Y-70120000D03*
X160460000Y-70120000D03*
X163000000Y-70120000D03*
X165540000Y-70120000D03*
X168080000Y-70120000D03*
X170620000Y-70120000D03*
X173160000Y-70120000D03*
X175700000Y-70120000D03*
D17*
X174000000Y-108120000D03*
D16*
X174000000Y-100500000D03*
D17*
X156500000Y-107620000D03*
D16*
X156500000Y-100000000D03*
D17*
X140500000Y-71120000D03*
D16*
X140500000Y-63500000D03*
D17*
X154500000Y-89810000D03*
D16*
X154500000Y-82190000D03*
D18*
X180730000Y-101000000D03*
D19*
X182000000Y-101000000D03*
X183270000Y-101000000D03*
D17*
X177000000Y-108120000D03*
D16*
X177000000Y-100500000D03*
D20*
X133360000Y-95250000D03*
D21*
X140960000Y-95250000D03*
D22*
X179730000Y-77500000D03*
D23*
X182270000Y-77500000D03*
D15*
X144700000Y-99200000D03*
D16*
X144700000Y-101740000D03*
X144700000Y-104280000D03*
X144700000Y-106820000D03*
X152320000Y-106820000D03*
X152320000Y-104280000D03*
X152320000Y-101740000D03*
X152320000Y-99200000D03*
D24*
X145000000Y-64000000D03*
D25*
X145000000Y-65270000D03*
X145000000Y-66540000D03*
D17*
X149500000Y-63500000D03*
D16*
X149500000Y-71120000D03*
D17*
X159500000Y-107620000D03*
D16*
X159500000Y-100000000D03*
D17*
X144500000Y-70000000D03*
X144500000Y-75000000D03*
X161620000Y-75000000D03*
D16*
X154000000Y-75000000D03*
D22*
X179725000Y-92500000D03*
D23*
X182265000Y-92500000D03*
D22*
X164725000Y-85000000D03*
D23*
X167265000Y-85000000D03*
D26*
X135000000Y-72500000D03*
D27*
X135000000Y-69000000D03*
D15*
X135000000Y-82500000D03*
D17*
X137000000Y-82500000D03*
X139000000Y-82500000D03*
X135000000Y-87500000D03*
X137000000Y-87500000D03*
X139000000Y-87500000D03*
X171000000Y-108120000D03*
D16*
X171000000Y-100500000D03*
D17*
X157500000Y-82190000D03*
D16*
X157500000Y-89810000D03*
D17*
X160500000Y-89810000D03*
D16*
X160500000Y-82190000D03*
D17*
X154345000Y-95000000D03*
X159345000Y-95000000D03*
D22*
X179725000Y-85000000D03*
D23*
X182265000Y-85000000D03*
D22*
X164725000Y-77500000D03*
D23*
X167265000Y-77500000D03*
D22*
X172230000Y-85000000D03*
D23*
X174770000Y-85000000D03*
D17*
X143880000Y-78500000D03*
D16*
X151500000Y-78500000D03*
D17*
X173355000Y-80645000D03*
D16*
X173355000Y-73025000D03*
D21*
X143750000Y-82750000D03*
X150250000Y-82750000D03*
X143750000Y-87250000D03*
X150250000Y-87250000D03*
D17*
X162500000Y-107620000D03*
D16*
X162500000Y-100000000D03*
D22*
X164730000Y-92500000D03*
D23*
X167270000Y-92500000D03*
D24*
X166500000Y-101000000D03*
D25*
X166500000Y-102270000D03*
X166500000Y-103540000D03*
D17*
X154345000Y-92500000D03*
X159345000Y-92500000D03*
%LPD*%
M02*
